<svg width="16" height="16" viewBox="0 0 16 16" fill="none" xmlns="http://www.w3.org/2000/svg">
<path d="M7.06671 11.0673L11.7667 6.36732L10.8334 5.43398L7.06671 9.20065L5.16671 7.30065L4.23338 8.23398L7.06671 11.0673ZM8.00004 14.6673C7.07782 14.6673 6.21115 14.4922 5.40004 14.142C4.58893 13.7918 3.88337 13.3169 3.28338 12.7173C2.68338 12.1178 2.20849 11.4122 1.85871 10.6007C1.50893 9.7891 1.33382 8.92243 1.33337 8.00065C1.33293 7.07887 1.50804 6.21221 1.85871 5.40065C2.20937 4.5891 2.68426 3.88354 3.28338 3.28398C3.88249 2.68443 4.58804 2.20954 5.40004 1.85932C6.21204 1.5091 7.07871 1.33398 8.00004 1.33398C8.92137 1.33398 9.78804 1.5091 10.6 1.85932C11.412 2.20954 12.1176 2.68443 12.7167 3.28398C13.3158 3.88354 13.7909 4.5891 14.142 5.40065C14.4932 6.21221 14.668 7.07887 14.6667 8.00065C14.6654 8.92243 14.4903 9.7891 14.1414 10.6007C13.7925 11.4122 13.3176 12.1178 12.7167 12.7173C12.1158 13.3169 11.4103 13.792 10.6 14.1427C9.78982 14.4933 8.92315 14.6682 8.00004 14.6673Z" fill="#38A34F"/>
</svg>
