<svg width="16" height="16" viewBox="0 0 16 16" fill="none" xmlns="http://www.w3.org/2000/svg">
<path d="M4.00004 8.66699L9.33337 8.66699L7.00004 11.0003L7.94671 11.947L11.8934 8.00033L7.94671 4.05366L7.00004 5.00033L9.33337 7.33366L4.00004 7.33366L4.00004 8.66699ZM14.6667 8.00033C14.6667 8.8758 14.4943 9.74271 14.1592 10.5515C13.8242 11.3604 13.3331 12.0953 12.7141 12.7144C11.4638 13.9646 9.76815 14.667 8.00004 14.667C6.23193 14.667 4.53624 13.9646 3.286 12.7144C2.03575 11.4641 1.33337 9.76844 1.33337 8.00033C1.33337 7.12485 1.50581 6.25794 1.84084 5.4491C2.17587 4.64027 2.66694 3.90534 3.28599 3.28628C3.90505 2.66722 4.63998 2.17616 5.44882 1.84113C6.25765 1.5061 7.12456 1.33366 8.00004 1.33366C9.76815 1.33366 11.4638 2.03604 12.7141 3.28628C13.9643 4.53652 14.6667 6.23222 14.6667 8.00033Z" fill="#481AA3"/>
</svg>
