<svg width="16" height="16" viewBox="0 0 16 16" fill="none" xmlns="http://www.w3.org/2000/svg">
<path d="M8.00016 14.6668C7.07794 14.6668 6.21128 14.4917 5.40016 14.1415C4.58905 13.7913 3.8835 13.3164 3.2835 12.7168C2.6835 12.1173 2.20861 11.4117 1.85883 10.6002C1.50905 9.78861 1.33394 8.92194 1.3335 8.00016C1.33305 7.07838 1.50816 6.21172 1.85883 5.40016C2.2095 4.58861 2.68439 3.88305 3.2835 3.2835C3.88261 2.68394 4.58816 2.20905 5.40016 1.85883C6.21216 1.50861 7.07883 1.3335 8.00016 1.3335C8.9215 1.3335 9.78816 1.50861 10.6002 1.85883C11.4122 2.20905 12.1177 2.68394 12.7168 3.2835C13.3159 3.88305 13.7911 4.58861 14.1422 5.40016C14.4933 6.21172 14.6682 7.07838 14.6668 8.00016C14.6655 8.92194 14.4904 9.78861 14.1415 10.6002C13.7926 11.4117 13.3177 12.1173 12.7168 12.7168C12.1159 13.3164 11.4104 13.7915 10.6002 14.1422C9.78994 14.4928 8.92327 14.6677 8.00016 14.6668ZM8.00016 13.3335C8.60016 13.3335 9.17794 13.2364 9.7335 13.0422C10.2891 12.8479 10.8002 12.5673 11.2668 12.2002L3.80016 4.7335C3.4335 5.20016 3.15283 5.71127 2.95816 6.26683C2.7635 6.82238 2.66639 7.40016 2.66683 8.00016C2.66683 9.48905 3.1835 10.7502 4.21683 11.7835C5.25016 12.8168 6.51127 13.3335 8.00016 13.3335ZM12.2002 11.2668C12.5668 10.8002 12.8475 10.2891 13.0422 9.7335C13.2368 9.17794 13.3339 8.60016 13.3335 8.00016C13.3335 6.51127 12.8168 5.25016 11.7835 4.21683C10.7502 3.1835 9.48905 2.66683 8.00016 2.66683C7.40016 2.66683 6.82239 2.76394 6.26683 2.95816C5.71127 3.15238 5.20016 3.43305 4.7335 3.80016L12.2002 11.2668Z" fill="#959BA1"/>
</svg>
