<svg width="16" height="16" viewBox="0 0 16 16" fill="none" xmlns="http://www.w3.org/2000/svg">
<path d="M4.66669 14C4.30002 14 3.98624 13.8696 3.72536 13.6087C3.46447 13.3478 3.3338 13.0338 3.33336 12.6667V4C3.14447 4 2.98624 3.936 2.85869 3.808C2.73113 3.68 2.66713 3.52178 2.66669 3.33333C2.66624 3.14489 2.73024 2.98667 2.85869 2.85867C2.98713 2.73067 3.14536 2.66667 3.33336 2.66667H6.00002C6.00002 2.47778 6.06402 2.31956 6.19202 2.192C6.32002 2.06444 6.47825 2.00044 6.66669 2H9.33336C9.52225 2 9.68069 2.064 9.80869 2.192C9.93669 2.32 10.0005 2.47822 10 2.66667H12.6667C12.8556 2.66667 13.014 2.73067 13.142 2.85867C13.27 2.98667 13.3338 3.14489 13.3334 3.33333C13.3329 3.52178 13.2689 3.68022 13.1414 3.80867C13.0138 3.93711 12.8556 4.00089 12.6667 4V12.6667C12.6667 13.0333 12.5362 13.3473 12.2754 13.6087C12.0145 13.87 11.7005 14.0004 11.3334 14H4.66669ZM6.66669 11.3333C6.85558 11.3333 7.01402 11.2693 7.14202 11.1413C7.27002 11.0133 7.3338 10.8551 7.33336 10.6667V6C7.33336 5.81111 7.26936 5.65289 7.14136 5.52533C7.01336 5.39778 6.85513 5.33378 6.66669 5.33333C6.47825 5.33289 6.32002 5.39689 6.19202 5.52533C6.06402 5.65378 6.00002 5.812 6.00002 6V10.6667C6.00002 10.8556 6.06402 11.014 6.19202 11.142C6.32002 11.27 6.47825 11.3338 6.66669 11.3333ZM9.33336 11.3333C9.52225 11.3333 9.68069 11.2693 9.80869 11.1413C9.93669 11.0133 10.0005 10.8551 10 10.6667V6C10 5.81111 9.93602 5.65289 9.80802 5.52533C9.68002 5.39778 9.5218 5.33378 9.33336 5.33333C9.14491 5.33289 8.98669 5.39689 8.85869 5.52533C8.73069 5.65378 8.66669 5.812 8.66669 6V10.6667C8.66669 10.8556 8.73069 11.014 8.85869 11.142C8.98669 11.27 9.14491 11.3338 9.33336 11.3333Z" fill="#959BA1"/>
</svg>
