<svg width="25" height="25" viewBox="0 0 25 25" fill="none" xmlns="http://www.w3.org/2000/svg">
<path d="M14.5 12.5V20.38C14.54 20.68 14.44 21 14.21 21.21C14.1175 21.3027 14.0076 21.3762 13.8866 21.4264C13.7657 21.4766 13.636 21.5024 13.505 21.5024C13.374 21.5024 13.2444 21.4766 13.1234 21.4264C13.0024 21.3762 12.8925 21.3027 12.8 21.21L10.79 19.2C10.681 19.0933 10.5981 18.9629 10.5478 18.819C10.4975 18.675 10.4812 18.5213 10.5 18.37V12.5H10.47L4.71001 5.12C4.54762 4.91153 4.47434 4.64726 4.5062 4.38493C4.53805 4.1226 4.67244 3.88355 4.88001 3.72C5.07001 3.58 5.28001 3.5 5.50001 3.5H19.5C19.72 3.5 19.93 3.58 20.12 3.72C20.3276 3.88355 20.462 4.1226 20.4938 4.38493C20.5257 4.64726 20.4524 4.91153 20.29 5.12L14.53 12.5H14.5Z" fill="#959BA1"/>
</svg>
