<svg width="110" height="27" viewBox="0 0 110 27" fill="none" xmlns="http://www.w3.org/2000/svg">
<g clip-path="url(#clip0_1245_4080)">
<path d="M7.46098 6.48996C8.39298 6.48996 9.32498 6.62796 10.224 6.97396C11.017 7.28396 11.742 7.73396 12.364 8.32096C12.9807 8.94113 13.4627 9.68192 13.78 10.497C14.126 11.429 14.297 12.43 14.297 13.431C14.297 13.707 14.297 13.984 14.264 14.261C14.231 14.431 14.194 14.606 14.093 14.778C14.023 14.916 13.921 14.985 13.783 15.054C13.612 15.124 13.437 15.124 13.266 15.124H4.52698C4.66598 16.401 5.04398 17.3 5.66698 17.886C6.28898 18.439 7.08298 18.749 8.08398 18.749C8.53098 18.749 9.01498 18.679 9.42998 18.541C9.77598 18.439 10.122 18.301 10.467 18.126C10.777 17.988 11.021 17.816 11.297 17.711C11.537 17.573 11.814 17.504 12.091 17.504C12.401 17.471 12.713 17.642 12.921 17.883L14.231 19.506C13.7914 20.0141 13.28 20.4554 12.713 20.816C12.196 21.162 11.643 21.402 11.057 21.61C10.504 21.781 9.91698 21.92 9.36398 21.989C8.81098 22.058 8.29398 22.091 7.74098 22.091C6.71785 22.0908 5.70225 21.916 4.73798 21.574C3.83478 21.2232 3.00417 20.7086 2.28798 20.056C1.56454 19.3281 1.00057 18.4577 0.631977 17.5C0.187672 16.3685 -0.0238783 15.1591 0.00997675 13.944C0.00997675 12.943 0.180977 11.974 0.526977 11.043C0.867317 10.1542 1.38166 9.34235 2.03985 8.65497C2.69804 7.96759 3.48683 7.41852 4.35998 7.03996C5.35512 6.68266 6.40365 6.49669 7.46098 6.48996ZM7.56698 9.63096C6.70398 9.63096 6.01198 9.87096 5.52798 10.355C5.04398 10.84 4.73498 11.564 4.55998 12.495H10.224C10.224 12.15 10.191 11.771 10.085 11.425C9.98298 11.08 9.84498 10.77 9.63798 10.527C9.42998 10.25 9.12098 10.043 8.80798 9.87096C8.41429 9.70955 7.99246 9.62797 7.56698 9.63096ZM40.609 10.046C40.5196 10.2045 40.3886 10.3356 40.23 10.425C40.059 10.494 39.884 10.563 39.713 10.527C39.506 10.527 39.265 10.494 39.058 10.388L38.366 10.078C38.09 9.97696 37.813 9.87096 37.536 9.76896C37.188 9.67093 36.8275 9.62443 36.466 9.63096C35.88 9.63096 35.466 9.73296 35.156 9.97696C34.846 10.184 34.672 10.53 34.708 10.876C34.708 11.152 34.81 11.393 35.018 11.567C35.258 11.775 35.535 11.946 35.811 12.051C36.19 12.19 36.536 12.328 36.951 12.466C37.365 12.604 37.813 12.743 38.228 12.881C38.676 13.052 39.091 13.227 39.506 13.434C39.92 13.642 40.299 13.882 40.612 14.194C40.958 14.504 41.234 14.886 41.405 15.301C41.613 15.785 41.715 16.338 41.715 16.888C41.715 17.613 41.577 18.304 41.3 18.959C41.024 19.582 40.609 20.168 40.092 20.583C39.506 21.067 38.814 21.413 38.09 21.653C37.19 21.929 36.295 22.031 35.363 22.031C34.8417 22.0373 34.321 21.9911 33.809 21.893C33.292 21.791 32.809 21.653 32.324 21.514C31.876 21.344 31.425 21.169 31.014 20.928C30.6424 20.7261 30.2946 20.4832 29.977 20.204L31.014 18.548C31.116 18.376 31.29 18.202 31.462 18.1C31.6764 17.9915 31.9127 17.933 32.153 17.929C32.397 17.929 32.637 17.998 32.845 18.099L33.536 18.479C33.813 18.617 34.089 18.755 34.399 18.857C34.814 18.995 35.229 19.028 35.64 19.028C35.95 19.028 36.226 18.995 36.539 18.926C36.751 18.858 36.9494 18.753 37.125 18.616C37.263 18.515 37.365 18.34 37.435 18.202C37.504 18.064 37.537 17.892 37.537 17.718C37.5379 17.5771 37.5109 17.4375 37.4577 17.3071C37.4046 17.1766 37.3261 17.058 37.227 16.958C36.9849 16.7534 36.7186 16.5794 36.434 16.44C36.054 16.302 35.673 16.164 35.294 16.062C34.879 15.923 34.432 15.785 34.017 15.647C33.582 15.484 33.1555 15.2994 32.739 15.094C32.3165 14.8808 31.9315 14.6005 31.599 14.264C31.2454 13.9146 30.9745 13.4906 30.806 13.023C30.6 12.4584 30.495 11.8619 30.496 11.261C30.496 10.639 30.636 10.02 30.876 9.43096C31.1181 8.84361 31.4974 8.32276 31.982 7.91196C32.521 7.43613 33.1565 7.0824 33.845 6.87496C34.6905 6.59377 35.5794 6.46543 36.47 6.49596C36.987 6.49596 37.54 6.52896 38.057 6.63496C38.541 6.73696 39.025 6.87496 39.506 7.08296C39.92 7.25296 40.336 7.46096 40.747 7.70496C41.093 7.94496 41.438 8.18896 41.747 8.49796L40.609 10.046ZM50.483 25.825C50.3839 26.0831 50.2166 26.3094 49.999 26.48C49.792 26.618 49.482 26.687 49.068 26.687H46.305C46.028 26.687 45.821 26.377 45.959 26.134L48.616 20.576L42.403 6.45396H46.407C46.684 6.42096 46.993 6.52296 47.237 6.69396C47.408 6.83196 47.547 7.03996 47.652 7.24696L50.276 14.083C50.516 14.669 50.691 15.291 50.829 15.913L51.139 14.982C51.241 14.672 51.379 14.359 51.484 14.05L53.868 7.24696C53.97 7.00696 54.108 6.83196 54.316 6.69396C54.533 6.55819 54.784 6.48644 55.04 6.48696H58.702L50.483 25.825ZM69.16 10.046C69.0704 10.2047 68.9389 10.3358 68.78 10.425C68.643 10.494 68.471 10.563 68.264 10.527C68.056 10.527 67.816 10.494 67.609 10.388L66.917 10.078C66.641 9.97696 66.364 9.87096 66.087 9.76896C65.739 9.67093 65.3785 9.62443 65.017 9.63096C64.431 9.63096 64.017 9.73296 63.707 9.97696C63.397 10.184 63.223 10.53 63.259 10.876C63.259 11.152 63.361 11.393 63.569 11.567C63.809 11.775 64.085 11.946 64.362 12.051C64.741 12.19 65.086 12.328 65.502 12.466C65.916 12.604 66.364 12.743 66.779 12.881C67.227 13.052 67.642 13.227 68.056 13.434C68.471 13.642 68.85 13.882 69.196 14.194C69.541 14.504 69.818 14.886 69.989 15.301C70.197 15.785 70.299 16.338 70.299 16.888C70.299 17.613 70.16 18.304 69.884 18.959C69.607 19.582 69.192 20.168 68.675 20.583C68.089 21.067 67.398 21.413 66.674 21.653C65.774 21.929 64.879 22.031 63.947 22.031C63.4257 22.0373 62.905 21.9911 62.393 21.893C61.876 21.791 61.393 21.653 60.908 21.514C60.46 21.344 60.009 21.169 59.561 20.928C59.1894 20.7261 58.8416 20.4832 58.524 20.204L59.561 18.548C59.663 18.376 59.838 18.202 60.009 18.1C60.2237 17.9913 60.4603 17.9329 60.701 17.929C60.944 17.929 61.185 17.998 61.392 18.099L62.084 18.479C62.36 18.617 62.637 18.755 62.946 18.857C63.361 18.995 63.776 19.028 64.188 19.028C64.498 19.028 64.774 18.995 65.086 18.926C65.2984 18.8581 65.4971 18.7531 65.673 18.616C65.949 18.409 66.087 18.064 66.087 17.718C66.0879 17.5771 66.061 17.4375 66.0078 17.3071C65.9546 17.1766 65.8761 17.058 65.777 16.958C65.5349 16.7534 65.2686 16.5794 64.984 16.44C64.606 16.302 64.224 16.164 63.845 16.062C63.43 15.923 62.982 15.785 62.568 15.647C62.133 15.484 61.7065 15.2994 61.29 15.094C60.8675 14.8808 60.4825 14.6005 60.15 14.264C59.7964 13.9146 59.5255 13.4906 59.357 13.023C59.151 12.4584 59.046 11.8619 59.047 11.261C59.047 10.639 59.186 10.02 59.427 9.43096C59.6691 8.84361 60.0484 8.32276 60.533 7.91196C61.072 7.43613 61.7075 7.0824 62.396 6.87496C63.2415 6.59377 64.1304 6.46543 65.021 6.49596C65.538 6.49596 66.091 6.52896 66.608 6.63496C67.092 6.73696 67.576 6.87496 68.056 7.04996C68.471 7.21996 68.886 7.42796 69.298 7.67196C69.644 7.91196 69.989 8.15596 70.266 8.46496L69.16 10.046ZM72.13 21.511V0.240959C72.13 0.101959 72.232 0.032959 72.337 0.032959H74.787C75.824 0.032959 76.65 0.862959 76.65 1.89696V8.07696C77.167 7.62896 77.79 7.24696 78.412 6.93696C79.1304 6.62899 79.9091 6.48746 80.69 6.52296C81.451 6.52296 82.208 6.66096 82.9 6.93796C83.523 7.21668 84.0772 7.6291 84.523 8.14596C84.9821 8.67846 85.3232 9.30214 85.524 9.97596C85.764 10.737 85.87 11.495 85.87 12.292V21.544C85.8706 21.6211 85.8559 21.6976 85.8267 21.769C85.7975 21.8404 85.7544 21.9053 85.6998 21.9598C85.6453 22.0144 85.5804 22.0575 85.509 22.0867C85.4376 22.1159 85.3611 22.1306 85.284 22.13H81.935C81.8578 22.1306 81.7813 22.1159 81.7099 22.0867C81.6385 22.0575 81.5737 22.0144 81.5191 21.9598C81.4646 21.9053 81.4214 21.8404 81.3922 21.769C81.363 21.6976 81.3483 21.6211 81.349 21.544V12.255C81.349 11.531 81.178 10.945 80.832 10.53C80.486 10.115 80.002 9.90796 79.314 9.90796C78.83 9.90796 78.346 10.01 77.934 10.218C77.487 10.458 77.036 10.734 76.657 11.08V21.508C76.6576 21.5851 76.6429 21.6616 76.6137 21.733C76.5845 21.8044 76.5414 21.8693 76.4868 21.9238C76.4323 21.9784 76.3674 22.0215 76.296 22.0507C76.2246 22.0799 76.1481 22.0946 76.071 22.094H72.722C72.6449 22.0942 72.5686 22.0793 72.4974 22.0499C72.4262 22.0206 72.3615 21.9774 72.307 21.923C72.2502 21.8706 72.2051 21.8068 72.1746 21.7358C72.1441 21.6648 72.1289 21.5882 72.13 21.511ZM94.951 26.101V6.45696H97.747C97.987 6.45696 98.231 6.52696 98.471 6.62796C98.678 6.76596 98.817 6.97396 98.886 7.18096L99.232 8.59696C99.508 8.28696 99.818 7.97496 100.163 7.73496C100.498 7.47286 100.856 7.24127 101.233 7.04296C101.613 6.83596 102.063 6.69696 102.475 6.59496C102.951 6.48795 103.436 6.43065 103.924 6.42396C104.684 6.42396 105.442 6.59496 106.1 6.94096C106.781 7.31255 107.37 7.83111 107.825 8.45896C108.348 9.20089 108.735 10.0307 108.965 10.909C109.241 11.9804 109.38 13.0825 109.38 14.189C109.38 15.259 109.241 16.329 108.896 17.329C108.614 18.2406 108.17 19.0942 107.586 19.849C107.032 20.539 106.344 21.126 105.547 21.505C104.736 21.9193 103.833 22.1209 102.923 22.091C102.231 22.124 101.576 21.989 100.921 21.745C100.388 21.5343 99.8973 21.2298 99.472 20.846V26.058C99.4726 26.1351 99.4579 26.2116 99.4287 26.283C99.3995 26.3544 99.3564 26.4193 99.3018 26.4738C99.2473 26.5284 99.1824 26.5715 99.111 26.6007C99.0396 26.6299 98.9631 26.6446 98.886 26.644H95.57C95.493 26.6444 95.4167 26.6296 95.3455 26.6004C95.2743 26.5712 95.2095 26.5282 95.155 26.474C95.056 26.378 94.951 26.239 94.951 26.101ZM102.34 9.90796C102.03 9.90796 101.754 9.94096 101.441 10.01C101.201 10.079 100.924 10.148 100.681 10.286C100.44 10.388 100.233 10.563 100.058 10.734C99.851 10.942 99.643 11.149 99.472 11.356V17.78C99.782 18.126 100.163 18.403 100.578 18.574C100.993 18.712 101.408 18.814 101.82 18.814C102.235 18.814 102.613 18.745 102.959 18.574C103.338 18.403 103.65 18.126 103.858 17.78C104.134 17.333 104.342 16.849 104.48 16.365C104.651 15.673 104.72 14.949 104.688 14.225C104.688 13.533 104.655 12.878 104.516 12.222C104.439 11.7587 104.274 11.3142 104.032 10.912C103.852 10.6039 103.588 10.353 103.272 10.188C103.032 9.97696 102.686 9.90796 102.34 9.90796ZM28.557 12.43C28.557 11.6 28.419 10.807 28.143 10.046C27.8874 9.3377 27.4869 8.69057 26.967 8.14596C26.45 7.59296 25.792 7.17796 25.103 6.90496C24.3097 6.60101 23.4664 6.44903 22.617 6.45696C21.409 6.45696 20.201 6.66396 19.025 7.04296C18.0369 7.39018 17.1153 7.90355 16.3 8.56096C16.2104 8.63462 16.1507 8.73833 16.1319 8.85277C16.1132 8.9672 16.1366 9.08455 16.198 9.18296L16.82 10.253C16.958 10.461 17.13 10.668 17.337 10.807C17.577 10.945 17.854 11.047 18.131 11.047C18.44 11.047 18.753 11.014 19.029 10.876C19.269 10.774 19.546 10.636 19.823 10.497C20.1 10.326 20.409 10.187 20.722 10.082C21.137 9.94396 21.585 9.91096 22.032 9.91096C22.688 9.91096 23.208 10.118 23.586 10.497C23.966 10.912 24.14 11.534 24.14 12.43V13.085C22.414 13.085 20.962 13.256 19.823 13.569C18.683 13.879 17.785 14.261 17.097 14.745C16.511 15.123 16.027 15.676 15.681 16.299C15.4066 16.8077 15.2639 17.377 15.266 17.955C15.266 18.577 15.368 19.196 15.576 19.75C15.783 20.266 16.092 20.681 16.474 21.06C16.889 21.439 17.374 21.682 17.924 21.854C18.5415 22.0319 19.1804 22.1247 19.823 22.13C20.307 22.13 20.755 22.097 21.239 21.992C21.654 21.922 22.032 21.784 22.447 21.613C22.8346 21.4407 23.2052 21.2324 23.554 20.991C23.761 20.853 23.932 20.714 24.14 20.543V21.959H26.695C27.732 21.959 28.558 21.129 28.558 20.095V12.43H28.557ZM22.792 18.818C22.3122 19.023 21.7957 19.1285 21.274 19.128C20.721 19.128 20.306 19.025 20.033 18.818C19.756 18.61 19.618 18.232 19.618 17.711C19.618 17.471 19.687 17.194 19.825 16.987C19.996 16.71 20.24 16.503 20.55 16.401C20.9914 16.1996 21.4544 16.0493 21.93 15.953C22.654 15.815 23.414 15.782 24.175 15.782V17.852C23.757 18.228 23.309 18.574 22.792 18.818ZM88.738 21.784L92.261 19.746C92.3784 19.6733 92.4751 19.5715 92.5415 19.4504C92.6079 19.3293 92.6418 19.1931 92.64 19.055V11.047C92.64 10.737 92.33 10.563 92.054 10.701L88.567 12.739C88.4492 12.8116 88.3523 12.9135 88.2857 13.0348C88.2191 13.1561 88.1851 13.2926 88.187 13.431V21.442C88.152 21.752 88.498 21.922 88.738 21.784Z" fill="#1A2A36"/>
<path d="M92.257 2.24595L88.563 0.105951C88.461 0.0319507 88.29 -4.92753e-05 88.151 -4.92753e-05C88.0056 -0.00730595 87.8614 0.0281532 87.736 0.101951L84.18 2.10395C84.078 2.17395 83.973 2.27495 83.973 2.38095C83.973 2.51895 84.075 2.62095 84.18 2.69095L88.151 5.00495V9.73295C88.151 9.83495 88.184 9.94095 88.253 10.01C88.355 10.079 88.461 10.043 88.53 10.01L92.257 7.86995C92.497 7.73095 92.603 7.52395 92.603 7.24695V2.86495C92.5998 2.74132 92.5666 2.62031 92.5064 2.51232C92.4461 2.40432 92.3605 2.31257 92.257 2.24495V2.24595Z" fill="url(#paint0_linear_1245_4080)"/>
<path d="M92.511 2.51892L88.151 5.00492V9.73592C88.151 9.83892 88.184 9.94392 88.253 10.0129C88.355 10.0829 88.461 10.0459 88.53 10.0129L92.257 7.87292C92.497 7.73492 92.603 7.52692 92.603 7.24992V2.86492C92.6017 2.74371 92.5701 2.62475 92.511 2.51892Z" fill="url(#paint1_linear_1245_4080)"/>
</g>
<defs>
<linearGradient id="paint0_linear_1245_4080" x1="547.542" y1="386.694" x2="761.293" y2="-108.981" gradientUnits="userSpaceOnUse">
<stop stop-color="#8DD0D6"/>
<stop offset="1" stop-color="#57C4C6"/>
</linearGradient>
<linearGradient id="paint1_linear_1245_4080" x1="41.4362" y1="379.224" x2="512.961" y2="379.224" gradientUnits="userSpaceOnUse">
<stop stop-color="#8ED2D8"/>
<stop offset="1" stop-color="#57C4C7"/>
</linearGradient>
<clipPath id="clip0_1245_4080">
<rect width="110" height="27" fill="white"/>
</clipPath>
</defs>
</svg>
