<svg width="16" height="16" viewBox="0 0 16 16" fill="none" xmlns="http://www.w3.org/2000/svg">
<path d="M7.99992 7.66683C7.55789 7.66683 7.13397 7.49123 6.82141 7.17867C6.50885 6.86611 6.33325 6.44219 6.33325 6.00016C6.33325 5.55814 6.50885 5.13421 6.82141 4.82165C7.13397 4.50909 7.55789 4.3335 7.99992 4.3335C8.44195 4.3335 8.86587 4.50909 9.17843 4.82165C9.49099 5.13421 9.66658 5.55814 9.66658 6.00016C9.66658 6.21903 9.62348 6.43576 9.53972 6.63797C9.45596 6.84018 9.33319 7.02391 9.17843 7.17867C9.02367 7.33344 8.83993 7.4562 8.63772 7.53996C8.43551 7.62372 8.21879 7.66683 7.99992 7.66683ZM7.99992 1.3335C6.76224 1.3335 5.57526 1.82516 4.70009 2.70033C3.82492 3.5755 3.33325 4.76249 3.33325 6.00016C3.33325 9.50016 7.99992 14.6668 7.99992 14.6668C7.99992 14.6668 12.6666 9.50016 12.6666 6.00016C12.6666 4.76249 12.1749 3.5755 11.2997 2.70033C10.4246 1.82516 9.2376 1.3335 7.99992 1.3335Z" fill="#959BA1"/>
</svg>
