<svg width="16" height="16" viewBox="0 0 16 16" fill="none" xmlns="http://www.w3.org/2000/svg">
<path d="M5.99998 7.66683C6.21885 7.66683 6.43558 7.62372 6.63779 7.53996C6.83999 7.4562 7.02373 7.33344 7.17849 7.17867C7.33326 7.02391 7.45602 6.84018 7.53978 6.63797C7.62354 6.43576 7.66665 6.21903 7.66665 6.00016C7.66665 5.78129 7.62354 5.56457 7.53978 5.36236C7.45602 5.16015 7.33326 4.97642 7.17849 4.82165C7.02373 4.66689 6.83999 4.54412 6.63779 4.46036C6.43558 4.37661 6.21885 4.3335 5.99998 4.3335C5.55795 4.3335 5.13403 4.50909 4.82147 4.82165C4.50891 5.13421 4.33331 5.55814 4.33331 6.00016C4.33331 6.21903 4.37642 6.43576 4.46018 6.63797C4.54394 6.84018 4.6667 7.02391 4.82147 7.17867C5.13403 7.49123 5.55795 7.66683 5.99998 7.66683ZM5.99998 1.3335C8.57331 1.3335 10.6666 3.42016 10.6666 6.00016C10.6666 9.50016 5.99998 14.6668 5.99998 14.6668C5.99998 14.6668 1.33331 9.50016 1.33331 6.00016C1.33331 4.76249 1.82498 3.5755 2.70015 2.70033C3.57532 1.82516 4.7623 1.3335 5.99998 1.3335ZM9.99998 11.3335H12V9.3335H13.3333V11.3335H15.3333V12.6668H13.3333V14.6668H12V12.6668H9.99998V11.3335Z" fill="#959BA1"/>
</svg>
