<svg width="124" height="124" viewBox="0 0 124 124" fill="none" xmlns="http://www.w3.org/2000/svg">
<rect width="124" height="124" rx="62" fill="#E5E5E8"/>
<path d="M62 60.75C60.3424 60.75 58.7527 60.0915 57.5806 58.9194C56.4085 57.7473 55.75 56.1576 55.75 54.5C55.75 52.8424 56.4085 51.2527 57.5806 50.0806C58.7527 48.9085 60.3424 48.25 62 48.25C63.6576 48.25 65.2473 48.9085 66.4194 50.0806C67.5915 51.2527 68.25 52.8424 68.25 54.5C68.25 55.3208 68.0883 56.1335 67.7742 56.8918C67.4602 57.6501 66.9998 58.3391 66.4194 58.9194C65.8391 59.4998 65.1501 59.9602 64.3918 60.2742C63.6335 60.5883 62.8208 60.75 62 60.75ZM62 37C57.3587 37 52.9075 38.8437 49.6256 42.1256C46.3437 45.4075 44.5 49.8587 44.5 54.5C44.5 67.625 62 87 62 87C62 87 79.5 67.625 79.5 54.5C79.5 49.8587 77.6563 45.4075 74.3744 42.1256C71.0925 38.8437 66.6413 37 62 37Z" fill="#959BA1"/>
</svg>
