<svg width="30" height="28" viewBox="0 0 30 28" fill="none" xmlns="http://www.w3.org/2000/svg">
<path fill-rule="evenodd" clip-rule="evenodd" d="M11.9318 0.810991C12.8458 1.27775 13.0378 2.56304 12.3018 3.28952C11.4009 4.17876 9.87475 3.49062 9.87709 2.19609C9.87913 1.09449 11.0032 0.336798 11.9318 0.810991ZM19.0471 0.728172C20.1376 1.02462 20.4762 2.55115 19.6244 3.33167C19.0913 3.8203 18.1606 3.79163 17.6622 3.27136C16.6118 2.17496 17.612 0.337966 19.0471 0.728172ZM10.1346 6.03105C10.2182 6.06757 10.3771 6.23225 10.5615 6.47349C13.0648 9.75016 17.0596 9.70918 19.4998 6.38175C19.8053 5.96521 20.0884 5.87284 20.4043 6.08668C20.9066 6.42667 20.785 6.84352 19.9067 7.7935C17.1238 10.8033 13.6131 11.0057 10.5926 8.33055C10.3069 8.07753 9.59867 7.26739 9.42788 6.99833C9.08415 6.45661 9.57375 5.78652 10.1346 6.03105ZM7.90974 7.69911C8.31582 7.90021 8.36333 8.53176 7.99041 8.77226C7.92012 8.8177 7.4712 9.00829 6.9929 9.1958C6.51459 9.38331 6.11328 9.54715 6.10118 9.55989C6.05479 9.6082 6.00342 9.58707 8.4322 10.5173C9.258 10.8336 10.308 11.2376 12.8997 12.2361C14.1861 12.7318 15.0005 13.0244 15.0563 13.0111C15.1056 12.9993 15.5122 12.848 15.9598 12.6747C16.4074 12.5015 18.3804 11.7412 20.3441 10.9854C22.3079 10.2296 23.9147 9.59854 23.9147 9.58304C23.9147 9.56764 23.4865 9.38788 22.9632 9.1837C21.9544 8.78999 21.8349 8.71588 21.7584 8.43748C21.654 8.05704 21.9618 7.62935 22.3402 7.62935C22.4223 7.62935 24.4964 8.40668 25.6875 8.88374C26.1458 9.06733 26.1555 9.07816 26.7423 10.0715C27.0046 10.5153 27.261 10.9453 27.3122 11.0271C27.9028 11.9706 29.1277 14.0888 29.148 14.202C29.2324 14.672 29.0755 14.7925 27.6931 15.3189C27.0809 15.5522 26.5295 15.764 26.468 15.7898C26.4002 15.8182 26.3561 15.8845 26.3561 15.9579L26.3559 19.2186C26.3557 21.4079 26.3408 22.6561 26.3138 22.758C26.2303 23.0714 26.1551 23.1125 24.4795 23.7574C23.6205 24.0881 22.0206 24.705 20.924 25.1283C19.8274 25.5516 18.6372 26.01 18.2791 26.1469C17.9211 26.2837 17.0788 26.6094 16.4074 26.8706C14.9322 27.4446 15.0217 27.4346 14.2102 27.1145C13.8745 26.982 12.7758 26.5562 11.7688 26.1683C10.7617 25.7804 9.15037 25.1593 8.18806 24.7883C7.22574 24.4172 5.88908 23.9019 5.2177 23.6433C4.54632 23.3845 3.95123 23.1383 3.89528 23.0961C3.64056 22.9036 3.65124 23.0714 3.65124 19.2813L3.65114 15.9541C3.65114 15.8822 3.60655 15.8179 3.53924 15.7927C0.283446 14.57 0.43176 14.7892 1.57036 12.883C1.88001 12.3645 2.44082 11.4242 2.81649 10.7935C3.78359 9.16958 3.80139 9.14186 3.92773 9.06393C3.99039 9.02538 4.6633 8.75304 5.42308 8.45871C6.18296 8.16449 6.96024 7.85944 7.15047 7.78087C7.54516 7.61778 7.70975 7.60005 7.90974 7.69911ZM3.97005 11.2522C3.67261 11.7474 3.18748 12.5539 2.89207 13.0445C2.30471 14.0197 2.31377 13.9828 2.63389 14.097C2.7346 14.133 3.35716 14.3719 4.01735 14.6279C6.24654 15.4925 7.89804 16.1322 8.98151 16.5509C9.57456 16.78 10.4761 17.1286 10.9851 17.3256C11.6361 17.5774 11.9209 17.6695 11.9461 17.6362C11.9657 17.6102 12.1516 17.3022 12.3591 16.9518C13.09 15.7178 13.6713 14.7417 13.763 14.5947C14.0035 14.209 14.072 14.0727 14.0407 14.0421C14.022 14.024 13.1003 13.6603 11.9926 13.2341C10.8848 12.8079 9.58474 12.3078 9.10358 12.1226C8.62242 11.9374 7.93578 11.674 7.57771 11.537C6.85292 11.2599 4.79036 10.4639 4.62017 10.3956C4.51173 10.3521 4.50675 10.3588 3.97005 11.2522ZM22.2871 11.583C20.5974 12.2358 18.8946 12.8926 18.5029 13.0426C16.3594 13.8636 16.0247 13.9937 15.9688 14.0271C15.9179 14.0575 15.9406 14.118 16.1018 14.3823C16.2087 14.5575 16.4653 14.9875 16.6721 15.3379C16.8788 15.6883 17.1066 16.0705 17.1782 16.1873C17.2498 16.3041 17.4707 16.6741 17.6691 17.0093C17.8675 17.3446 18.0544 17.6287 18.0844 17.6407C18.1145 17.6528 18.5368 17.5085 19.0229 17.3203C19.509 17.1319 20.5293 16.737 21.2902 16.4427C22.0511 16.1484 23.1131 15.7375 23.6502 15.5295C24.1873 15.3216 25.2493 14.9109 26.0102 14.6169C27.7211 13.9558 27.6178 13.9992 27.6156 13.9418C27.6147 13.9154 27.4046 13.5499 27.149 13.1294C26.8934 12.7089 26.6001 12.2216 26.4973 12.0464C26.3944 11.8712 26.2118 11.5654 26.0915 11.3668C25.971 11.1683 25.7936 10.8675 25.6972 10.6984C25.5705 10.4761 25.4994 10.3917 25.4406 10.3936C25.3958 10.395 23.9767 10.9302 22.2871 11.583ZM14.157 16.3047C14.0605 16.4737 13.8831 16.7745 13.7627 16.9731C13.6423 17.1716 13.4597 17.4774 13.357 17.6526C12.6574 18.845 12.5505 18.9889 12.3137 19.0554C12.0933 19.1173 12.5441 19.2769 8.2084 17.6022C5.57221 16.5839 4.92412 16.336 4.89859 16.336C4.84356 16.336 4.86807 22.0984 4.92321 22.1462C4.9702 22.187 5.59032 22.4331 7.45564 23.1515C8.98049 23.7388 10.2373 24.2244 12.2312 24.9967C13.3807 25.4419 14.3374 25.7956 14.3572 25.7829C14.401 25.7547 14.4066 15.996 14.3627 15.9967C14.346 15.9971 14.2533 16.1356 14.157 16.3047ZM15.614 20.8946C15.614 23.5965 15.626 25.8071 15.6405 25.8071C15.6552 25.8071 16.8591 25.3459 18.3159 24.7821C21.6696 23.4841 23.1489 22.9125 24.1995 22.5083C24.6583 22.3317 25.0565 22.1681 25.0845 22.1445C25.1439 22.0946 25.1607 16.336 25.1015 16.336C25.0829 16.336 24.3459 16.6143 23.4637 16.9544C17.1262 19.3979 17.8401 19.1498 17.5674 19.0035C17.3968 18.912 17.3278 18.8107 16.5252 17.4708C16.0525 16.6817 15.654 16.0239 15.6398 16.0091C15.6256 15.9942 15.614 18.1927 15.614 20.8946Z" fill="#481AA3"/>
</svg>
