<svg width="29" height="27" viewBox="0 0 29 27" fill="none" xmlns="http://www.w3.org/2000/svg">
<path fill-rule="evenodd" clip-rule="evenodd" d="M11.3411 0.143999C12.275 0.61076 12.4712 1.89605 11.7191 2.62252C10.7986 3.51177 9.23905 2.82363 9.24144 1.5291C9.24352 0.427496 10.3921 -0.330194 11.3411 0.143999ZM18.6118 0.0611797C19.7262 0.35763 20.0721 1.88416 19.2018 2.66468C18.657 3.15331 17.706 3.12464 17.1966 2.60437C16.1233 1.50797 17.1454 -0.329026 18.6118 0.0611797ZM9.50453 5.36405C9.58997 5.40058 9.75234 5.56526 9.94079 5.8065C12.4988 9.08317 16.5808 9.04218 19.0744 5.71476C19.3866 5.29822 19.6759 5.20585 19.9986 5.41969C20.5119 5.75967 20.3877 6.17653 19.4902 7.12651C16.6464 10.1364 13.0591 10.3387 9.9726 7.66356C9.68062 7.41054 8.95693 6.6004 8.78241 6.33134C8.43117 5.78962 8.93147 5.11952 9.50453 5.36405ZM7.2311 7.03212C7.64606 7.23322 7.6946 7.86477 7.31353 8.10526C7.2417 8.15071 6.78298 8.3413 6.29422 8.52881C5.80546 8.71632 5.39539 8.88016 5.38302 8.8929C5.33562 8.94121 5.28313 8.92008 7.76497 9.85031C8.60882 10.1666 9.68176 10.5706 12.3301 11.5691C13.6446 12.0648 14.4767 12.3574 14.5338 12.3441C14.5842 12.3323 14.9997 12.181 15.4571 12.0077C15.9144 11.8345 17.9305 11.0742 19.9372 10.3184C21.9439 9.56256 23.5857 8.93155 23.5857 8.91604C23.5857 8.90065 23.1482 8.72089 22.6135 8.51671C21.5827 8.123 21.4605 8.04888 21.3824 7.77048C21.2756 7.39005 21.5901 6.96236 21.9768 6.96236C22.0607 6.96236 24.1802 7.73969 25.3973 8.21675C25.8656 8.40033 25.8755 8.41117 26.4752 9.40447C26.7431 9.84829 27.0052 10.2783 27.0575 10.3601C27.661 11.3036 28.9126 13.4218 28.9334 13.535C29.0197 14.005 28.8593 14.1255 27.4467 14.6519C26.8211 14.8852 26.2577 15.097 26.1948 15.1228C26.1256 15.1511 26.0805 15.2185 26.0805 15.2932L26.0803 18.5516C26.08 20.7409 26.0649 21.9891 26.0372 22.091C25.952 22.4044 25.8751 22.4455 24.1628 23.0905C23.2851 23.4211 21.6502 24.038 20.5297 24.4613C19.4091 24.8847 18.193 25.343 17.8271 25.4799C17.4612 25.6168 16.6005 25.9424 15.9144 26.2036C14.407 26.7776 14.4985 26.7676 13.6692 26.4475C13.3261 26.315 12.2035 25.8892 11.1744 25.5013C10.1454 25.1134 8.49884 24.4923 7.5155 24.1213C6.53216 23.7502 5.16629 23.235 4.48024 22.9763C3.79419 22.7175 3.1861 22.4713 3.12893 22.4291C2.86865 22.2366 2.87956 22.4044 2.87956 18.6143L2.87946 15.2894C2.87946 15.2163 2.8338 15.1509 2.76511 15.1257C-0.561818 13.903 -0.410264 14.1222 0.753217 12.216C1.06963 11.6975 1.64269 10.7572 2.02657 10.1265C3.0148 8.50258 3.03299 8.47487 3.16209 8.39694C3.22612 8.35839 3.91373 8.08605 4.69011 7.79172C5.4666 7.4975 6.26086 7.19245 6.45524 7.11388C6.85855 6.95079 7.02674 6.93305 7.2311 7.03212ZM3.20533 10.5852C2.90139 11.0804 2.40567 11.8869 2.1038 12.3775C1.50361 13.3527 1.51286 13.3158 1.83998 13.43C1.94289 13.466 2.57905 13.7049 3.25367 13.9609C5.53156 14.8255 7.21915 15.4652 8.32629 15.8839C8.9323 16.113 9.85358 16.4616 10.3736 16.6586C11.0389 16.9104 11.3299 17.0025 11.3556 16.9693C11.3757 16.9432 11.5656 16.6352 11.7776 16.2848C12.5245 15.0508 13.1186 14.0747 13.2122 13.9277C13.458 13.542 13.528 13.4057 13.496 13.3751C13.4769 13.357 12.5351 12.9933 11.4031 12.5671C10.2711 12.1409 8.94269 11.6408 8.45103 11.4556C7.95935 11.2704 7.25771 11.007 6.89182 10.87C6.15119 10.5929 4.04356 9.7969 3.86966 9.72863C3.75885 9.68509 3.75376 9.69178 3.20533 10.5852ZM21.9226 10.916C20.196 11.5688 18.4559 12.2256 18.0557 12.3757C15.8654 13.1966 15.5234 13.3267 15.4662 13.3601C15.4142 13.3905 15.4374 13.451 15.6022 13.7153C15.7114 13.8905 15.9736 14.3205 16.1849 14.6709C16.3961 15.0213 16.6289 15.4036 16.702 15.5203C16.7752 15.6371 17.001 16.0071 17.2037 16.3423C17.4064 16.6776 17.5974 16.9617 17.6281 16.9737C17.6589 16.9858 18.0904 16.8415 18.5871 16.6533C19.0838 16.4649 20.1264 16.07 20.9039 15.7757C21.6814 15.4814 22.7666 15.0705 23.3155 14.8625C23.8643 14.6546 24.9495 14.2439 25.727 13.9499C27.4753 13.2888 27.3697 13.3322 27.3675 13.2748C27.3666 13.2484 27.1519 12.8829 26.8907 12.4624C26.6295 12.0419 26.3298 11.5546 26.2247 11.3794C26.1196 11.2042 25.9331 10.8984 25.8101 10.6998C25.687 10.5013 25.5057 10.2005 25.4072 10.0314C25.2777 9.80911 25.2051 9.7247 25.1449 9.72661C25.0992 9.72799 23.6491 10.2632 21.9226 10.916ZM13.6148 15.6377C13.5163 15.8067 13.335 16.1075 13.2119 16.3061C13.0889 16.5046 12.9024 16.8104 12.7974 16.9856C12.0825 18.178 11.9733 18.3219 11.7313 18.3884C11.506 18.4503 11.9667 18.6099 7.53629 16.9352C4.8425 15.9169 4.18025 15.669 4.15416 15.669C4.09793 15.669 4.12298 21.4314 4.17932 21.4792C4.22734 21.52 4.861 21.7661 6.76708 22.4845C8.32525 23.0718 9.60951 23.5574 11.647 24.3297C12.8216 24.7749 13.7992 25.1287 13.8195 25.1159C13.8642 25.0877 13.8699 15.329 13.8251 15.3298C13.8079 15.3301 13.7132 15.4686 13.6148 15.6377ZM15.1036 20.2276C15.1036 22.9295 15.1159 25.1401 15.1308 25.1401C15.1457 25.1401 16.376 24.6789 17.8646 24.1151C21.2916 22.8171 22.8032 22.2455 23.8768 21.8413C24.3456 21.6647 24.7525 21.5011 24.7811 21.4775C24.8418 21.4276 24.859 15.669 24.7985 15.669C24.7795 15.669 24.0264 15.9473 23.1249 16.2874C16.6489 18.7309 17.3784 18.4828 17.0997 18.3365C16.9254 18.245 16.8549 18.1437 16.0348 16.8038C15.5518 16.0147 15.1446 15.3569 15.13 15.3421C15.1155 15.3272 15.1036 17.5257 15.1036 20.2276Z" fill="white"/>
</svg>
