<svg width="25" height="24" viewBox="0 0 25 24" fill="none" xmlns="http://www.w3.org/2000/svg">
<path d="M15.32 11.25L14.42 12.17C13.7 12.89 13.25 13.5 13.25 15H11.25V14.5C11.25 13.39 11.7 12.39 12.42 11.67L13.66 10.41C14.03 10.05 14.25 9.55 14.25 9C14.25 8.46957 14.0393 7.96086 13.6642 7.58579C13.2891 7.21071 12.7804 7 12.25 7C11.7196 7 11.2109 7.21071 10.8358 7.58579C10.4607 7.96086 10.25 8.46957 10.25 9H8.25C8.25 7.93913 8.67143 6.92172 9.42157 6.17157C10.1717 5.42143 11.1891 5 12.25 5C13.3109 5 14.3283 5.42143 15.0784 6.17157C15.8286 6.92172 16.25 7.93913 16.25 9C16.2486 9.84324 15.9143 10.6518 15.32 11.25ZM13.25 19H11.25V17H13.25M12.25 2C10.9368 2 9.63642 2.25866 8.42317 2.7612C7.20991 3.26375 6.10752 4.00035 5.17893 4.92893C3.30357 6.8043 2.25 9.34784 2.25 12C2.25 14.6522 3.30357 17.1957 5.17893 19.0711C6.10752 19.9997 7.20991 20.7362 8.42317 21.2388C9.63642 21.7413 10.9368 22 12.25 22C14.9022 22 17.4457 20.9464 19.3211 19.0711C21.1964 17.1957 22.25 14.6522 22.25 12C22.25 6.47 17.75 2 12.25 2Z" fill="#5E17EB"/>
</svg>
