<svg width="25" height="24" viewBox="0 0 25 24" fill="none" xmlns="http://www.w3.org/2000/svg">
<path d="M5.87 5H19.62L18.68 4H6.68L5.87 5ZM21.29 5.23C21.58 5.57 21.75 6 21.75 6.5V19C21.75 19.5304 21.5393 20.0391 21.1642 20.4142C20.7891 20.7893 20.2804 21 19.75 21H5.75C5.21957 21 4.71086 20.7893 4.33579 20.4142C3.96071 20.0391 3.75 19.5304 3.75 19V6.5C3.75 6 3.92 5.57 4.21 5.23L5.59 3.55C5.87 3.21 6.28 3 6.75 3H18.75C19.22 3 19.63 3.21 19.9 3.55L21.29 5.23ZM6.75 18H12.75V15H6.75V18Z" fill="#959BA1"/>
</svg>
