<svg width="24" height="25" viewBox="0 0 24 25" fill="none" xmlns="http://www.w3.org/2000/svg">
<path d="M11 17.6665H13V13.6665H17V11.6665H13V7.6665H11V11.6665H7V13.6665H11V17.6665ZM12 22.6665C10.6167 22.6665 9.31667 22.4038 8.1 21.8785C6.88334 21.3532 5.825 20.6408 4.925 19.7415C4.025 18.8422 3.31267 17.7838 2.788 16.5665C2.26333 15.3492 2.00067 14.0492 2 12.6665C1.99933 11.2838 2.262 9.98384 2.788 8.7665C3.314 7.54917 4.02633 6.49084 4.925 5.5915C5.82367 4.69217 6.882 3.97984 8.1 3.4545C9.318 2.92917 10.618 2.6665 12 2.6665C13.382 2.6665 14.682 2.92917 15.9 3.4545C17.118 3.97984 18.1763 4.69217 19.075 5.5915C19.9737 6.49084 20.6863 7.54917 21.213 8.7665C21.7397 9.98384 22.002 11.2838 22 12.6665C21.998 14.0492 21.7353 15.3492 21.212 16.5665C20.6887 17.7838 19.9763 18.8422 19.075 19.7415C18.1737 20.6408 17.1153 21.3535 15.9 21.8795C14.6847 22.4055 13.3847 22.6678 12 22.6665Z" fill="white"/>
</svg>
