<svg width="124" height="124" viewBox="0 0 124 124" fill="none" xmlns="http://www.w3.org/2000/svg">
<rect width="124" height="124" rx="62" fill="#E5E5E8"/>
<path d="M62 45.75C64.3206 45.75 66.5462 46.6719 68.1872 48.3128C69.8281 49.9538 70.75 52.1794 70.75 54.5C70.75 56.8206 69.8281 59.0462 68.1872 60.6872C66.5462 62.3281 64.3206 63.25 62 63.25C59.6794 63.25 57.4538 62.3281 55.8128 60.6872C54.1719 59.0462 53.25 56.8206 53.25 54.5C53.25 52.1794 54.1719 49.9538 55.8128 48.3128C57.4538 46.6719 59.6794 45.75 62 45.75ZM44.5 52C45.9 52 47.2 52.375 48.325 53.05C47.95 56.625 49 60.175 51.15 62.95C49.9 65.35 47.4 67 44.5 67C42.5109 67 40.6032 66.2098 39.1967 64.8033C37.7902 63.3968 37 61.4891 37 59.5C37 57.5109 37.7902 55.6032 39.1967 54.1967C40.6032 52.7902 42.5109 52 44.5 52ZM79.5 52C81.4891 52 83.3968 52.7902 84.8033 54.1967C86.2098 55.6032 87 57.5109 87 59.5C87 61.4891 86.2098 63.3968 84.8033 64.8033C83.3968 66.2098 81.4891 67 79.5 67C76.6 67 74.1 65.35 72.85 62.95C75.0287 60.1356 76.0404 56.5904 75.675 53.05C76.8 52.375 78.1 52 79.5 52ZM45.75 77.625C45.75 72.45 53.025 68.25 62 68.25C70.975 68.25 78.25 72.45 78.25 77.625V82H45.75V77.625ZM32 82V78.25C32 74.775 36.725 71.85 43.125 71C41.65 72.7 40.75 75.05 40.75 77.625V82H32ZM92 82H83.25V77.625C83.25 75.05 82.35 72.7 80.875 71C87.275 71.85 92 74.775 92 78.25V82Z" fill="#959BA1"/>
</svg>
