<svg width="32" height="32" viewBox="0 0 32 32" fill="none" xmlns="http://www.w3.org/2000/svg">
<rect width="32" height="32" rx="8" fill="#481AA3"/>
<path fill-rule="evenodd" clip-rule="evenodd" d="M13.5345 5.57723C14.2635 5.94153 14.4166 6.94469 13.8296 7.51169C13.1111 8.20574 11.8939 7.66865 11.8958 6.65829C11.8974 5.7985 12.7939 5.20713 13.5345 5.57723ZM19.2092 5.51259C20.079 5.74397 20.349 6.93541 19.6697 7.54459C19.2445 7.92596 18.5023 7.90359 18.1047 7.49752C17.267 6.64179 18.0647 5.20804 19.2092 5.51259ZM12.1012 9.65142C12.1678 9.67993 12.2946 9.80846 12.4417 9.99675C14.4382 12.5541 17.6241 12.5222 19.5703 9.92514C19.814 9.60004 20.0398 9.52794 20.2917 9.69485C20.6923 9.9602 20.5953 10.2856 19.8949 11.027C17.6753 13.3761 14.8755 13.5341 12.4665 11.4462C12.2386 11.2487 11.6738 10.6164 11.5375 10.4064C11.2634 9.98357 11.6539 9.46057 12.1012 9.65142ZM10.3268 10.9533C10.6506 11.1103 10.6885 11.6032 10.3911 11.7909C10.335 11.8264 9.97702 11.9751 9.59555 12.1215C9.21408 12.2678 8.89402 12.3957 8.88437 12.4056C8.84737 12.4433 8.8064 12.4269 10.7434 13.1529C11.4021 13.3998 12.2395 13.7151 14.3065 14.4944C15.3325 14.8812 15.9819 15.1096 16.0264 15.0993C16.0658 15.0901 16.3901 14.972 16.747 14.8367C17.104 14.7015 18.6775 14.1081 20.2437 13.5183C21.8099 12.9283 23.0914 12.4358 23.0914 12.4237C23.0914 12.4117 22.7499 12.2714 22.3326 12.112C21.528 11.8047 21.4327 11.7469 21.3717 11.5296C21.2883 11.2327 21.5338 10.8989 21.8356 10.8989C21.9011 10.8989 23.5553 11.5056 24.5053 11.8779C24.8708 12.0212 24.8785 12.0297 25.3465 12.8049C25.5557 13.1513 25.7602 13.4869 25.801 13.5508C26.272 14.2871 27.2489 15.9404 27.2651 16.0288C27.3325 16.3955 27.2073 16.4896 26.1048 16.9005C25.6165 17.0825 25.1768 17.2479 25.1277 17.268C25.0737 17.2901 25.0385 17.3427 25.0385 17.401L25.0383 19.9442C25.0381 21.6529 25.0263 22.627 25.0047 22.7066C24.9382 22.9512 24.8782 22.9833 23.5418 23.4867C22.8567 23.7447 21.5807 24.2262 20.7062 24.5566C19.8316 24.887 18.8824 25.2448 18.5968 25.3516C18.3112 25.4584 17.6395 25.7126 17.104 25.9164C15.9275 26.3644 15.9989 26.3566 15.3516 26.1068C15.0839 26.0034 14.2077 25.6711 13.4045 25.3683C12.6013 25.0655 11.3162 24.5808 10.5487 24.2913C9.78126 24.0016 8.71521 23.5994 8.17976 23.3976C7.6443 23.1956 7.1697 23.0034 7.12507 22.9705C6.92193 22.8202 6.93045 22.9512 6.93045 19.9931L6.93037 17.398C6.93037 17.3409 6.89473 17.2899 6.84112 17.2703C4.24449 16.316 4.36278 16.487 5.27086 14.9993C5.51782 14.5946 5.96509 13.8607 6.2647 13.3684C7.03599 12.101 7.05019 12.0794 7.15096 12.0185C7.20093 11.9885 7.7376 11.7759 8.34356 11.5462C8.9496 11.3165 9.56951 11.0785 9.72122 11.0171C10.036 10.8898 10.1673 10.876 10.3268 10.9533ZM7.18471 13.7264C6.94748 14.113 6.56058 14.7424 6.32498 15.1253C5.85653 15.8865 5.86375 15.8576 6.11907 15.9468C6.19939 15.9749 6.6959 16.1614 7.22243 16.3612C9.0003 17.036 10.3174 17.5353 11.1815 17.862C11.6545 18.0409 12.3736 18.3129 12.7795 18.4667C13.2987 18.6632 13.5259 18.7351 13.5459 18.7091C13.5616 18.6888 13.7098 18.4484 13.8753 18.175C14.4582 17.2118 14.9219 16.45 14.995 16.3352C15.1868 16.0342 15.2414 15.9278 15.2164 15.904C15.2015 15.8898 14.4665 15.606 13.583 15.2733C12.6995 14.9407 11.6626 14.5503 11.2789 14.4058C10.8952 14.2613 10.3475 14.0557 10.062 13.9488C9.48391 13.7325 7.83893 13.1112 7.7032 13.0579C7.61672 13.0239 7.61274 13.0292 7.18471 13.7264ZM21.7933 13.9847C20.4457 14.4942 19.0876 15.0068 18.7753 15.1239C17.0657 15.7647 16.7988 15.8662 16.7542 15.8923C16.7136 15.916 16.7317 15.9632 16.8603 16.1695C16.9456 16.3062 17.1502 16.6418 17.3151 16.9153C17.48 17.1888 17.6616 17.4871 17.7187 17.5783C17.7758 17.6694 17.952 17.9582 18.1103 18.2198C18.2685 18.4815 18.4176 18.7033 18.4415 18.7126C18.4655 18.7221 18.8023 18.6094 19.19 18.4625C19.5776 18.3155 20.3914 18.0073 20.9982 17.7776C21.6051 17.5479 22.4521 17.2272 22.8804 17.0648C23.3088 16.9026 24.1558 16.582 24.7626 16.3525C26.1271 15.8366 26.0447 15.8705 26.043 15.8256C26.0423 15.8051 25.8748 15.5198 25.6709 15.1916C25.467 14.8634 25.2331 14.4831 25.1511 14.3463C25.0691 14.2096 24.9234 13.9709 24.8274 13.8159C24.7314 13.661 24.5899 13.4262 24.513 13.2943C24.4119 13.1207 24.3553 13.0549 24.3083 13.0563C24.2726 13.0574 23.1409 13.4752 21.7933 13.9847ZM15.3092 17.6699C15.2323 17.8018 15.0908 18.0366 14.9947 18.1915C14.8987 18.3465 14.7531 18.5852 14.6712 18.7219C14.1132 19.6525 14.028 19.7648 13.8391 19.8168C13.6633 19.8651 14.0229 19.9897 10.565 18.6825C8.46249 17.8878 7.94562 17.6943 7.92526 17.6943C7.88136 17.6943 7.90092 22.1918 7.94489 22.2291C7.98237 22.2609 8.47694 22.453 9.96461 23.0137C11.1807 23.4721 12.1831 23.8511 13.7733 24.4538C14.6901 24.8013 15.4531 25.0774 15.4689 25.0675C15.5038 25.0455 15.5083 17.429 15.4733 17.4295C15.4599 17.4298 15.386 17.5379 15.3092 17.6699ZM16.4712 21.2522C16.4712 23.361 16.4808 25.0864 16.4924 25.0864C16.504 25.0864 17.4642 24.7264 18.6261 24.2864C21.3008 23.2733 22.4806 22.8272 23.3185 22.5117C23.6844 22.3739 24.002 22.2462 24.0243 22.2278C24.0717 22.1888 24.0851 17.6943 24.0379 17.6943C24.0231 17.6943 23.4353 17.9115 22.7317 18.1769C17.6773 20.0841 18.2466 19.8905 18.0291 19.7763C17.8931 19.7048 17.8381 19.6258 17.198 18.58C16.8209 17.9641 16.5032 17.4507 16.4918 17.4391C16.4804 17.4275 16.4712 19.1435 16.4712 21.2522Z" fill="white"/>
</svg>
