<svg width="16" height="16" viewBox="0 0 16 16" fill="none" xmlns="http://www.w3.org/2000/svg">
<path fill-rule="evenodd" clip-rule="evenodd" d="M7.46429 2H4.99057C4.65577 2.01178 4.33023 2.11299 4.04776 2.29311C3.76529 2.47324 3.5362 2.7257 3.38429 3.02429L2 5.69257V5.70629H7.46429V2ZM2 13.0769V6.77771H14V13.0777C13.9998 13.3224 13.9024 13.557 13.7293 13.7299C13.5562 13.9029 13.3215 14 13.0769 14H2.92314C2.67831 14 2.44351 13.9027 2.27038 13.7296C2.09726 13.5565 2 13.3217 2 13.0769ZM14 5.69257V5.70629H8.53571V2H11.0094C11.3521 2.0036 11.6873 2.10095 11.9787 2.28152C12.27 2.46208 12.5063 2.71896 12.662 3.02429L14 5.69257ZM8 7.57143C8.1705 7.57143 8.33401 7.63916 8.45457 7.75972C8.57513 7.88028 8.64286 8.04379 8.64286 8.21429V9.71429H10.1429C10.3134 9.71429 10.4769 9.78202 10.5974 9.90257C10.718 10.0231 10.7857 10.1866 10.7857 10.3571C10.7857 10.5276 10.718 10.6912 10.5974 10.8117C10.4769 10.9323 10.3134 11 10.1429 11H8.64286V12.5C8.64286 12.6705 8.57513 12.834 8.45457 12.9546C8.33401 13.0751 8.1705 13.1429 8 13.1429C7.8295 13.1429 7.66599 13.0751 7.54543 12.9546C7.42487 12.834 7.35714 12.6705 7.35714 12.5V11H5.85714C5.68665 11 5.52313 10.9323 5.40257 10.8117C5.28202 10.6912 5.21429 10.5276 5.21429 10.3571C5.21429 10.1866 5.28202 10.0231 5.40257 9.90257C5.52313 9.78202 5.68665 9.71429 5.85714 9.71429H7.35714V8.21429C7.35714 8.04379 7.42487 7.88028 7.54543 7.75972C7.66599 7.63916 7.8295 7.57143 8 7.57143Z" fill="#959BA1"/>
</svg>
