<svg width="127" height="40" viewBox="0 0 127 40" fill="none" xmlns="http://www.w3.org/2000/svg">
<rect x="0.5" y="0.5" width="126" height="39" rx="3.5" fill="white"/>
<rect x="0.5" y="0.5" width="126" height="39" rx="3.5" stroke="#E5E5E8"/>
<path d="M25.7667 16.2333C25.2733 15.7366 24.6864 15.3424 24.0399 15.0735C23.3935 14.8046 22.7002 14.6663 22 14.6667C19.0533 14.6667 16.6733 17.0533 16.6733 20C16.6733 22.9467 19.0533 25.3333 22 25.3333C24.4867 25.3333 26.56 23.6333 27.1533 21.3333H25.7667C25.492 22.113 24.9822 22.7882 24.3076 23.2659C23.6329 23.7435 22.8266 24 22 24C19.7933 24 18 22.2067 18 20C18 17.7933 19.7933 16 22 16C23.1067 16 24.0933 16.46 24.8133 17.1867L22.6667 19.3333H27.3333V14.6667L25.7667 16.2333Z" fill="#481AA3"/>
<path d="M35.8422 25.5V15.3182H39.6603C40.4425 15.3182 41.0988 15.4541 41.6291 15.7259C42.1627 15.9976 42.5654 16.3788 42.8372 16.8693C43.1123 17.3565 43.2498 17.925 43.2498 18.5746C43.2498 19.2275 43.1106 19.7943 42.8322 20.2749C42.5571 20.7521 42.1511 21.1217 41.6142 21.3835C41.0772 21.642 40.4177 21.7713 39.6355 21.7713H36.916V20.2401H39.3869C39.8443 20.2401 40.2188 20.1771 40.5105 20.0511C40.8021 19.9219 41.0176 19.7346 41.1568 19.4893C41.2993 19.2408 41.3706 18.9358 41.3706 18.5746C41.3706 18.2133 41.2993 17.9051 41.1568 17.6499C41.0143 17.3913 40.7972 17.1958 40.5055 17.0632C40.2138 16.9273 39.8377 16.8594 39.377 16.8594H37.6866V25.5H35.8422ZM41.1021 20.8864L43.6227 25.5H41.5645L39.0886 20.8864H41.1021ZM48.1394 25.6491C47.3738 25.6491 46.7125 25.4901 46.1557 25.1719C45.6022 24.8504 45.1763 24.3963 44.878 23.8097C44.5797 23.2197 44.4306 22.5253 44.4306 21.7266C44.4306 20.9411 44.5797 20.2517 44.878 19.6584C45.1796 19.0618 45.6006 18.5978 46.1408 18.2663C46.681 17.9316 47.3158 17.7642 48.0449 17.7642C48.5156 17.7642 48.9597 17.8404 49.3773 17.9929C49.7982 18.142 50.1694 18.3741 50.4909 18.6889C50.8158 19.0038 51.071 19.4048 51.2566 19.892C51.4422 20.3759 51.535 20.9527 51.535 21.6222V22.174H45.2757V20.9609H49.8098C49.8065 20.6162 49.7319 20.3097 49.5861 20.0412C49.4403 19.7694 49.2364 19.5556 48.9746 19.3999C48.7161 19.2441 48.4145 19.1662 48.0698 19.1662C47.7019 19.1662 47.3787 19.2557 47.1003 19.4347C46.8219 19.6103 46.6048 19.8423 46.449 20.1307C46.2966 20.4157 46.2187 20.7289 46.2154 21.0703V22.1293C46.2154 22.5734 46.2966 22.9545 46.459 23.2727C46.6214 23.5876 46.8484 23.8295 47.1401 23.9986C47.4318 24.1643 47.7731 24.2472 48.1642 24.2472C48.4261 24.2472 48.6631 24.2107 48.8752 24.1378C49.0873 24.0616 49.2712 23.9505 49.427 23.8047C49.5828 23.6589 49.7005 23.4782 49.78 23.2628L51.4604 23.4517C51.3543 23.8958 51.1522 24.2836 50.8539 24.6151C50.5589 24.9432 50.181 25.1984 49.7203 25.3807C49.2596 25.5597 48.7327 25.6491 48.1394 25.6491ZM56.3786 28.5227C55.7322 28.5227 55.1771 28.4349 54.7131 28.2592C54.2491 28.0869 53.8762 27.8549 53.5945 27.5632C53.3127 27.2715 53.1172 26.9484 53.0078 26.5938L54.6286 26.201C54.7015 26.3501 54.8075 26.4976 54.9467 26.6435C55.0859 26.7926 55.2732 26.9152 55.5085 27.0114C55.7472 27.1108 56.0471 27.1605 56.4084 27.1605C56.9188 27.1605 57.3414 27.0362 57.6761 26.7876C58.0109 26.5424 58.1783 26.138 58.1783 25.5746V24.1278H58.0888C57.996 24.3134 57.8601 24.504 57.6811 24.6996C57.5054 24.8951 57.2718 25.0592 56.9801 25.1918C56.6918 25.3243 56.3288 25.3906 55.8913 25.3906C55.3047 25.3906 54.7727 25.2531 54.2955 24.978C53.8215 24.6996 53.4437 24.2853 53.1619 23.7351C52.8835 23.1816 52.7443 22.4889 52.7443 21.657C52.7443 20.8184 52.8835 20.1108 53.1619 19.5341C53.4437 18.9541 53.8232 18.5149 54.3004 18.2166C54.7777 17.915 55.3097 17.7642 55.8963 17.7642C56.3438 17.7642 56.7116 17.8404 57 17.9929C57.2917 18.142 57.5237 18.3227 57.696 18.5348C57.8684 18.7436 57.9993 18.9408 58.0888 19.1264H58.1882V17.8636H59.9631V25.6243C59.9631 26.2772 59.8073 26.8175 59.4957 27.245C59.1842 27.6726 58.7583 27.9924 58.218 28.2045C57.6778 28.4167 57.0646 28.5227 56.3786 28.5227ZM56.3935 23.9787C56.7746 23.9787 57.0994 23.8859 57.3679 23.7003C57.6364 23.5147 57.8402 23.2479 57.9794 22.8999C58.1186 22.5518 58.1882 22.1342 58.1882 21.647C58.1882 21.1664 58.1186 20.7455 57.9794 20.3842C57.8435 20.023 57.6413 19.7429 57.3729 19.544C57.1077 19.3419 56.7813 19.2408 56.3935 19.2408C55.9924 19.2408 55.6577 19.3452 55.3892 19.554C55.1207 19.7628 54.9186 20.0495 54.7827 20.4141C54.6468 20.7753 54.5788 21.1863 54.5788 21.647C54.5788 22.1143 54.6468 22.5237 54.7827 22.875C54.9219 23.223 55.1257 23.4948 55.3942 23.6903C55.666 23.8826 55.9991 23.9787 56.3935 23.9787ZM65.1882 25.6491C64.4226 25.6491 63.7614 25.4901 63.2045 25.1719C62.651 24.8504 62.2251 24.3963 61.9268 23.8097C61.6286 23.2197 61.4794 22.5253 61.4794 21.7266C61.4794 20.9411 61.6286 20.2517 61.9268 19.6584C62.2285 19.0618 62.6494 18.5978 63.1896 18.2663C63.7299 17.9316 64.3646 17.7642 65.0938 17.7642C65.5644 17.7642 66.0085 17.8404 66.4261 17.9929C66.8471 18.142 67.2183 18.3741 67.5398 18.6889C67.8646 19.0038 68.1198 19.4048 68.3054 19.892C68.491 20.3759 68.5838 20.9527 68.5838 21.6222V22.174H62.3246V20.9609H66.8587C66.8554 20.6162 66.7808 20.3097 66.6349 20.0412C66.4891 19.7694 66.2853 19.5556 66.0234 19.3999C65.7649 19.2441 65.4633 19.1662 65.1186 19.1662C64.7507 19.1662 64.4276 19.2557 64.1491 19.4347C63.8707 19.6103 63.6536 19.8423 63.4979 20.1307C63.3454 20.4157 63.2675 20.7289 63.2642 21.0703V22.1293C63.2642 22.5734 63.3454 22.9545 63.5078 23.2727C63.6702 23.5876 63.8973 23.8295 64.1889 23.9986C64.4806 24.1643 64.822 24.2472 65.2131 24.2472C65.4749 24.2472 65.7119 24.2107 65.924 24.1378C66.1361 24.0616 66.3201 23.9505 66.4759 23.8047C66.6316 23.6589 66.7493 23.4782 66.8288 23.2628L68.5092 23.4517C68.4032 23.8958 68.201 24.2836 67.9027 24.6151C67.6077 24.9432 67.2299 25.1984 66.7692 25.3807C66.3085 25.5597 65.7815 25.6491 65.1882 25.6491ZM71.9061 21.0256V25.5H70.1064V17.8636H71.8265V19.1612H71.916C72.0917 18.7337 72.3717 18.3939 72.7562 18.142C73.144 17.8902 73.6229 17.7642 74.193 17.7642C74.72 17.7642 75.179 17.8769 75.5701 18.1023C75.9645 18.3277 76.2695 18.6541 76.4849 19.0817C76.7037 19.5092 76.8114 20.0279 76.8081 20.6378V25.5H75.0083V20.9162C75.0083 20.4058 74.8758 20.0064 74.6106 19.718C74.3488 19.4297 73.9859 19.2855 73.5218 19.2855C73.207 19.2855 72.9269 19.3551 72.6816 19.4943C72.4397 19.6302 72.2491 19.8274 72.1099 20.0859C71.974 20.3445 71.9061 20.6577 71.9061 21.0256ZM82.0183 25.6491C81.2527 25.6491 80.5914 25.4901 80.0346 25.1719C79.4811 24.8504 79.0552 24.3963 78.7569 23.8097C78.4586 23.2197 78.3095 22.5253 78.3095 21.7266C78.3095 20.9411 78.4586 20.2517 78.7569 19.6584C79.0585 19.0618 79.4795 18.5978 80.0197 18.2663C80.56 17.9316 81.1947 17.7642 81.9238 17.7642C82.3945 17.7642 82.8386 17.8404 83.2562 17.9929C83.6771 18.142 84.0484 18.3741 84.3699 18.6889C84.6947 19.0038 84.9499 19.4048 85.1355 19.892C85.3211 20.3759 85.4139 20.9527 85.4139 21.6222V22.174H79.1547V20.9609H83.6887C83.6854 20.6162 83.6109 20.3097 83.465 20.0412C83.3192 19.7694 83.1154 19.5556 82.8535 19.3999C82.595 19.2441 82.2934 19.1662 81.9487 19.1662C81.5808 19.1662 81.2576 19.2557 80.9792 19.4347C80.7008 19.6103 80.4837 19.8423 80.3279 20.1307C80.1755 20.4157 80.0976 20.7289 80.0943 21.0703V22.1293C80.0943 22.5734 80.1755 22.9545 80.3379 23.2727C80.5003 23.5876 80.7273 23.8295 81.019 23.9986C81.3107 24.1643 81.652 24.2472 82.0431 24.2472C82.305 24.2472 82.542 24.2107 82.7541 24.1378C82.9662 24.0616 83.1502 23.9505 83.3059 23.8047C83.4617 23.6589 83.5794 23.4782 83.6589 23.2628L85.3393 23.4517C85.2333 23.8958 85.0311 24.2836 84.7328 24.6151C84.4378 24.9432 84.06 25.1984 83.5993 25.3807C83.1386 25.5597 82.6116 25.6491 82.0183 25.6491ZM86.9364 25.5V17.8636H88.6815V19.1364H88.761C88.9002 18.6955 89.1388 18.3558 89.4769 18.1172C89.8183 17.8752 90.2077 17.7543 90.6452 17.7543C90.7447 17.7543 90.8557 17.7592 90.9783 17.7692C91.1043 17.7758 91.2087 17.7874 91.2915 17.804V19.4595C91.2153 19.433 91.0943 19.4098 90.9286 19.3899C90.7662 19.3667 90.6088 19.3551 90.4563 19.3551C90.1282 19.3551 89.8332 19.4264 89.5714 19.5689C89.3129 19.7081 89.109 19.902 88.9599 20.1506C88.8107 20.3991 88.7362 20.6858 88.7362 21.0107V25.5H86.9364ZM94.5479 25.6541C94.064 25.6541 93.6282 25.5679 93.2404 25.3956C92.8559 25.2199 92.551 24.9614 92.3256 24.62C92.1036 24.2786 91.9925 23.8577 91.9925 23.3572C91.9925 22.9264 92.0721 22.5701 92.2312 22.2884C92.3903 22.0066 92.6074 21.7812 92.8825 21.6122C93.1576 21.4432 93.4674 21.3156 93.8121 21.2294C94.1602 21.1399 94.5198 21.0753 94.891 21.0355C95.3384 20.9891 95.7013 20.9477 95.9798 20.9112C96.2582 20.8714 96.4603 20.8118 96.5863 20.7322C96.7156 20.6494 96.7802 20.5218 96.7802 20.3494V20.3196C96.7802 19.9451 96.6692 19.6551 96.4471 19.4496C96.225 19.2441 95.9052 19.1413 95.4876 19.1413C95.0468 19.1413 94.6971 19.2375 94.4386 19.4297C94.1834 19.6219 94.011 19.849 93.9215 20.1108L92.2411 19.8722C92.3737 19.4081 92.5924 19.0204 92.8974 18.7088C93.2023 18.3939 93.5752 18.1586 94.016 18.0028C94.4568 17.8438 94.944 17.7642 95.4776 17.7642C95.8455 17.7642 96.2118 17.8073 96.5763 17.8935C96.9409 17.9796 97.274 18.1222 97.5756 18.321C97.8772 18.5166 98.1192 18.7834 98.3015 19.1214C98.4871 19.4595 98.5799 19.8821 98.5799 20.3892V25.5H96.8498V24.451H96.7901C96.6808 24.6631 96.5266 24.862 96.3278 25.0476C96.1322 25.2299 95.8853 25.3774 95.587 25.4901C95.292 25.5994 94.9457 25.6541 94.5479 25.6541ZM95.0153 24.3317C95.3765 24.3317 95.6897 24.2604 95.9549 24.1179C96.2201 23.9721 96.4239 23.7798 96.5664 23.5412C96.7122 23.3026 96.7852 23.0424 96.7852 22.7607V21.8608C96.7288 21.9072 96.6327 21.9503 96.4968 21.9901C96.3642 22.0298 96.2151 22.0646 96.0494 22.0945C95.8836 22.1243 95.7196 22.1508 95.5572 22.174C95.3948 22.1972 95.2539 22.2171 95.1346 22.2337C94.8661 22.2701 94.6258 22.3298 94.4137 22.4126C94.2016 22.4955 94.0342 22.6115 93.9116 22.7607C93.7889 22.9065 93.7276 23.0954 93.7276 23.3274C93.7276 23.6589 93.8486 23.9091 94.0906 24.0781C94.3325 24.2472 94.6407 24.3317 95.0153 24.3317ZM104.203 17.8636V19.2557H99.8129V17.8636H104.203ZM100.897 16.0341H102.696V23.2031C102.696 23.4451 102.733 23.6307 102.806 23.7599C102.882 23.8859 102.981 23.9721 103.104 24.0185C103.227 24.0649 103.363 24.0881 103.512 24.0881C103.624 24.0881 103.727 24.0798 103.82 24.0632C103.916 24.0466 103.989 24.0317 104.039 24.0185L104.342 25.4254C104.246 25.4586 104.108 25.495 103.929 25.5348C103.754 25.5746 103.538 25.5978 103.283 25.6044C102.832 25.6177 102.426 25.5497 102.065 25.4006C101.704 25.2481 101.417 25.0128 101.205 24.6946C100.996 24.3764 100.893 23.9787 100.897 23.5014V16.0341ZM109.007 25.6491C108.241 25.6491 107.58 25.4901 107.023 25.1719C106.469 24.8504 106.044 24.3963 105.745 23.8097C105.447 23.2197 105.298 22.5253 105.298 21.7266C105.298 20.9411 105.447 20.2517 105.745 19.6584C106.047 19.0618 106.468 18.5978 107.008 18.2663C107.548 17.9316 108.183 17.7642 108.912 17.7642C109.383 17.7642 109.827 17.8404 110.244 17.9929C110.665 18.142 111.037 18.3741 111.358 18.6889C111.683 19.0038 111.938 19.4048 112.124 19.892C112.309 20.3759 112.402 20.9527 112.402 21.6222V22.174H106.143V20.9609H110.677C110.674 20.6162 110.599 20.3097 110.453 20.0412C110.307 19.7694 110.104 19.5556 109.842 19.3999C109.583 19.2441 109.282 19.1662 108.937 19.1662C108.569 19.1662 108.246 19.2557 107.968 19.4347C107.689 19.6103 107.472 19.8423 107.316 20.1307C107.164 20.4157 107.086 20.7289 107.083 21.0703V22.1293C107.083 22.5734 107.164 22.9545 107.326 23.2727C107.489 23.5876 107.716 23.8295 108.007 23.9986C108.299 24.1643 108.64 24.2472 109.031 24.2472C109.293 24.2472 109.53 24.2107 109.742 24.1378C109.954 24.0616 110.138 23.9505 110.294 23.8047C110.45 23.6589 110.568 23.4782 110.647 23.2628L112.328 23.4517C112.222 23.8958 112.019 24.2836 111.721 24.6151C111.426 24.9432 111.048 25.1984 110.588 25.3807C110.127 25.5597 109.6 25.6491 109.007 25.6491Z" fill="#481AA3"/>
</svg>
