<svg width="20" height="20" viewBox="0 0 20 20" fill="none" xmlns="http://www.w3.org/2000/svg">
<path d="M8.33342 15C9.81256 14.9997 11.2491 14.5045 12.4142 13.5933L16.0776 17.2566L17.2559 16.0783L13.5926 12.415C14.5042 11.2497 14.9997 9.81282 15.0001 8.33329C15.0001 4.65746 12.0092 1.66663 8.33342 1.66663C4.65758 1.66663 1.66675 4.65746 1.66675 8.33329C1.66675 12.0091 4.65758 15 8.33342 15ZM8.33342 3.33329C11.0909 3.33329 13.3334 5.57579 13.3334 8.33329C13.3334 11.0908 11.0909 13.3333 8.33342 13.3333C5.57591 13.3333 3.33341 11.0908 3.33341 8.33329C3.33341 5.57579 5.57591 3.33329 8.33342 3.33329Z" fill="#959BA2"/>
</svg>
