<svg width="124" height="124" viewBox="0 0 124 124" fill="none" xmlns="http://www.w3.org/2000/svg">
<rect width="124" height="124" rx="62" fill="#E5E5E8"/>
<path d="M82 52H74.5V42H34.5V74.5H39.5C39.5 78.65 42.85 82 47 82C51.15 82 54.5 78.65 54.5 74.5H69.5C69.5 78.65 72.85 82 77 82C81.15 82 84.5 78.65 84.5 74.5H89.5V62L82 52ZM47 77C45.625 77 44.5 75.875 44.5 74.5C44.5 73.125 45.625 72 47 72C48.375 72 49.5 73.125 49.5 74.5C49.5 75.875 48.375 77 47 77ZM80.75 55.75L85.65 62H74.5V55.75H80.75ZM77 77C75.625 77 74.5 75.875 74.5 74.5C74.5 73.125 75.625 72 77 72C78.375 72 79.5 73.125 79.5 74.5C79.5 75.875 78.375 77 77 77Z" fill="#959BA1"/>
</svg>
