<svg width="270" height="67" viewBox="0 0 270 67" fill="none" xmlns="http://www.w3.org/2000/svg">
<g clip-path="url(#clip0_1244_3912)">
<path d="M18.3134 16.1048C20.6011 16.1048 22.8887 16.4473 25.0953 17.3059C27.0418 18.0751 28.8213 19.1918 30.3481 20.6484C31.8618 22.1874 33.045 24.0256 33.8237 26.0481C34.673 28.3609 35.0927 30.8448 35.0927 33.3288C35.0927 34.0137 35.0927 34.7011 35.0117 35.3884C34.9307 35.8103 34.8399 36.2445 34.592 36.6714C34.4201 37.0138 34.1698 37.185 33.8311 37.3562C33.4113 37.5299 32.9818 37.5299 32.5621 37.5299H11.1118C11.453 40.6988 12.3808 42.9296 13.91 44.3838C15.4367 45.7561 17.3856 46.5253 19.8426 46.5253C20.9398 46.5253 22.1278 46.3516 23.1464 46.0092C23.9957 45.7561 24.845 45.4136 25.6918 44.9793C26.4527 44.6369 27.0516 44.2101 27.7291 43.9495C28.3181 43.6071 28.9981 43.4359 29.678 43.4359C30.4389 43.354 31.2047 43.7783 31.7152 44.3763L34.9307 48.4038C33.8517 49.6648 32.5964 50.7599 31.2047 51.6545C29.9357 52.5131 28.5783 53.1087 27.14 53.6248C25.7826 54.0492 24.3418 54.3941 22.9844 54.5653C21.6271 54.7365 20.3581 54.8184 19.0007 54.8184C16.4894 54.8181 13.9965 54.3842 11.6297 53.5355C9.41275 52.6651 7.37398 51.388 5.61605 49.7686C3.84035 47.9625 2.45607 45.8025 1.55133 43.4259C0.460762 40.6182 -0.0584993 37.617 0.0245994 34.6018C0.0245994 32.1178 0.444327 29.7133 1.2936 27.403C2.12898 25.1976 3.39145 23.183 5.00701 21.4773C6.62256 19.7715 8.55868 18.409 10.7019 17.4696C13.1445 16.583 15.7182 16.1215 18.3134 16.1048ZM18.5736 23.8992C16.4553 23.8992 14.7568 24.4947 13.5688 25.6958C12.3808 26.8993 11.6223 28.6959 11.1928 31.0061H25.0953C25.0953 30.15 25.0143 29.2095 24.7541 28.3509C24.5038 27.4948 24.1651 26.7256 23.657 26.1226C23.1464 25.4352 22.388 24.9215 21.6197 24.4947C20.6534 24.0942 19.618 23.8918 18.5736 23.8992ZM99.6767 24.929C99.4574 25.3225 99.1357 25.6478 98.7464 25.8695C98.3267 26.0407 97.8971 26.2119 97.4774 26.1226C96.9693 26.1226 96.3778 26.0407 95.8697 25.7776L94.1712 25.0084C93.4937 24.7578 92.8138 24.4947 92.1339 24.2416C91.2797 23.9983 90.3948 23.883 89.5075 23.8992C88.0691 23.8992 87.053 24.1523 86.2921 24.7578C85.5311 25.2714 85.1041 26.13 85.1924 26.9886C85.1924 27.6735 85.4428 28.2715 85.9533 28.7033C86.5424 29.2195 87.2223 29.6438 87.8998 29.9044C88.8301 30.2493 89.6793 30.5917 90.698 30.9342C91.7141 31.2766 92.8138 31.6215 93.8324 31.964C94.9321 32.3883 95.9507 32.8226 96.9693 33.3362C97.9855 33.8524 98.9158 34.4479 99.6841 35.2222C100.533 35.9914 101.211 36.9394 101.631 37.9692C102.141 39.1702 102.391 40.5425 102.391 41.9073C102.391 43.7063 102.053 45.4211 101.373 47.0464C100.695 48.5924 99.6767 50.0465 98.4077 51.0763C96.9693 52.2774 95.2708 53.136 93.4937 53.7315C91.2846 54.4164 89.0878 54.6695 86.8001 54.6695C85.5205 54.6854 84.2426 54.5706 82.9858 54.3271C81.7168 54.074 80.5312 53.7315 79.3408 53.3866C78.2411 52.9648 77.1341 52.5305 76.1253 51.9325C75.2132 51.4314 74.3595 50.8288 73.58 50.1359L76.1253 46.0265C76.3757 45.5997 76.8028 45.1679 77.225 44.9148C77.7513 44.6456 78.3312 44.5005 78.9211 44.4905C79.52 44.4905 80.1091 44.6617 80.6196 44.9123L82.3157 45.8553C82.9956 46.1978 83.673 46.5402 84.434 46.7933C85.4526 47.1358 86.4712 47.2176 87.4801 47.2176C88.241 47.2176 88.9184 47.1358 89.6867 46.9645C90.2072 46.7958 90.6942 46.5354 91.1251 46.1953C91.4638 45.9446 91.7141 45.5104 91.886 45.1679C92.0553 44.8255 92.1363 44.3987 92.1363 43.9669C92.1385 43.6174 92.0724 43.2709 91.9419 42.9472C91.8113 42.6236 91.6188 42.3292 91.3754 42.081C90.7812 41.5734 90.1275 41.1417 89.429 40.7956C88.4962 40.4531 87.5611 40.1107 86.6308 39.8576C85.6121 39.5126 84.515 39.1702 83.4963 38.8278C82.4287 38.4234 81.3818 37.9654 80.3594 37.4555C79.3225 36.9266 78.3775 36.231 77.5612 35.3959C76.6934 34.5289 76.0284 33.4767 75.6148 32.3163C75.1091 30.9154 74.8516 29.4353 74.8539 27.944C74.8539 26.4005 75.1975 24.8645 75.7866 23.4029C76.381 21.9454 77.3118 20.6529 78.5013 19.6335C79.8245 18.4527 81.3843 17.575 83.0742 17.0602C85.1496 16.3624 87.3314 16.044 89.5173 16.1197C90.7863 16.1197 92.1437 16.2016 93.4127 16.4646C94.6007 16.7178 95.7887 17.0602 96.9693 17.5764C97.9855 17.9982 99.0066 18.5144 100.015 19.1198C100.865 19.7154 101.712 20.3209 102.47 21.0876L99.6767 24.929ZM123.913 64.0843C123.67 64.7247 123.259 65.2865 122.725 65.7096C122.217 66.0521 121.456 66.2233 120.44 66.2233H113.658C112.978 66.2233 112.47 65.4541 112.809 64.8511L119.33 51.059L104.08 16.0155H113.908C114.588 15.9336 115.347 16.1867 115.945 16.6111C116.365 16.9535 116.706 17.4696 116.964 17.9833L123.405 34.9467C123.994 36.4009 124.423 37.9444 124.762 39.4878L125.523 37.1776C125.773 36.4083 126.112 35.6316 126.37 34.8648L132.222 17.9833C132.472 17.3878 132.811 16.9535 133.321 16.6111C133.854 16.2742 134.47 16.0961 135.098 16.0974H144.087L123.913 64.0843ZM169.756 24.929C169.536 25.3228 169.214 25.6482 168.824 25.8695C168.487 26.0407 168.065 26.2119 167.557 26.1226C167.047 26.1226 166.458 26.0407 165.949 25.7776L164.251 25.0084C163.573 24.7578 162.894 24.4947 162.214 24.2416C161.359 23.9983 160.475 23.883 159.587 23.8992C158.149 23.8992 157.133 24.1523 156.372 24.7578C155.611 25.2714 155.184 26.13 155.272 26.9886C155.272 27.6735 155.523 28.2715 156.033 28.7033C156.622 29.2195 157.3 29.6438 157.98 29.9044C158.91 30.2493 159.757 30.5917 160.778 30.9342C161.794 31.2766 162.894 31.6215 163.912 31.964C165.012 32.3883 166.03 32.8226 167.047 33.3362C168.065 33.8524 168.996 34.4479 169.845 35.2222C170.692 35.9914 171.372 36.9394 171.791 37.9692C172.302 39.1702 172.552 40.5425 172.552 41.9073C172.552 43.7063 172.211 45.4211 171.534 47.0464C170.854 48.5924 169.835 50.0465 168.566 51.0763C167.128 52.2774 165.432 53.136 163.654 53.7315C161.445 54.4164 159.249 54.6695 156.961 54.6695C155.681 54.6854 154.403 54.5706 153.147 54.3271C151.878 54.074 150.692 53.7315 149.502 53.3866C148.402 52.9648 147.295 52.5305 146.195 51.9325C145.283 51.4314 144.429 50.8288 143.65 50.1359L146.195 46.0265C146.446 45.5997 146.875 45.1679 147.295 44.9148C147.822 44.6452 148.403 44.5002 148.993 44.4905C149.59 44.4905 150.181 44.6617 150.69 44.9123L152.388 45.8553C153.066 46.1978 153.745 46.5402 154.504 46.7933C155.523 47.1358 156.541 47.2176 157.552 47.2176C158.313 47.2176 158.991 47.1358 159.757 46.9645C160.278 46.7961 160.766 46.5356 161.197 46.1953C161.875 45.6816 162.214 44.8255 162.214 43.9669C162.216 43.6174 162.15 43.2709 162.019 42.9472C161.889 42.6236 161.696 42.3292 161.453 42.081C160.859 41.5734 160.205 41.1417 159.506 40.7956C158.578 40.4531 157.641 40.1107 156.711 39.8576C155.692 39.5126 154.592 39.1702 153.576 38.8278C152.508 38.4234 151.462 37.9654 150.439 37.4555C149.402 36.9266 148.457 36.231 147.641 35.3959C146.773 34.5289 146.108 33.4767 145.695 32.3163C145.189 30.9154 144.931 29.4353 144.934 27.944C144.934 26.4005 145.275 24.8645 145.866 23.4029C146.461 21.9454 147.392 20.6529 148.581 19.6335C149.904 18.4527 151.464 17.575 153.154 17.0602C155.229 16.3624 157.411 16.044 159.597 16.1197C160.866 16.1197 162.223 16.2016 163.492 16.4646C164.68 16.7178 165.868 17.0602 167.047 17.4945C168.065 17.9163 169.084 18.4325 170.095 19.0379C170.944 19.6335 171.791 20.239 172.471 21.0058L169.756 24.929ZM177.046 53.3792V0.598057C177.046 0.253131 177.297 0.0819092 177.555 0.0819092H183.568C186.114 0.0819092 188.141 2.14154 188.141 4.70739V20.0429C189.41 18.9312 190.939 17.9833 192.466 17.2141C194.229 16.4498 196.141 16.0986 198.057 16.1867C199.925 16.1867 201.783 16.5292 203.482 17.2165C205.011 17.9082 206.371 18.9316 207.466 20.2142C208.593 21.5356 209.43 23.0832 209.923 24.7553C210.512 26.6437 210.772 28.5246 210.772 30.5024V53.4611C210.774 53.6525 210.737 53.8423 210.666 54.0195C210.594 54.1967 210.488 54.3576 210.354 54.493C210.22 54.6283 210.061 54.7354 209.886 54.8079C209.711 54.8804 209.523 54.9169 209.334 54.9152H201.113C200.924 54.9169 200.736 54.8804 200.561 54.8079C200.386 54.7354 200.226 54.6283 200.093 54.493C199.959 54.3576 199.853 54.1967 199.781 54.0195C199.709 53.8423 199.673 53.6525 199.675 53.4611V30.4106C199.675 28.614 199.255 27.1598 198.406 26.13C197.557 25.1002 196.369 24.5865 194.68 24.5865C193.492 24.5865 192.304 24.8396 191.293 25.3558C190.195 25.9514 189.088 26.6362 188.158 27.4948V53.3717C188.16 53.5631 188.124 53.753 188.052 53.9301C187.98 54.1073 187.874 54.2683 187.741 54.4036C187.607 54.539 187.447 54.6461 187.272 54.7185C187.097 54.791 186.909 54.8275 186.72 54.8259H178.5C178.31 54.8266 178.123 54.7894 177.948 54.7166C177.773 54.6438 177.615 54.5367 177.481 54.4015C177.341 54.2715 177.231 54.1133 177.156 53.9371C177.081 53.761 177.044 53.5709 177.046 53.3792ZM233.062 64.7692V16.0229H239.925C240.514 16.0229 241.113 16.1966 241.702 16.4473C242.21 16.7897 242.551 17.3059 242.72 17.8195L243.57 21.3333C244.247 20.5641 245.008 19.7898 245.855 19.1943C246.678 18.5439 247.557 17.9692 248.481 17.4771C249.414 16.9634 250.518 16.6185 251.53 16.3654C252.697 16.0999 253.889 15.9577 255.086 15.9411C256.952 15.9411 258.812 16.3654 260.427 17.224C262.098 18.1461 263.544 19.4329 264.661 20.9909C265.946 22.832 266.894 24.8911 267.46 27.0705C268.137 29.7294 268.479 32.4641 268.478 35.2098C268.478 37.8649 268.137 40.5201 267.29 43.0016C266.597 45.2639 265.508 47.3819 264.075 49.2549C262.715 50.9672 261.026 52.4238 259.07 53.3643C257.079 54.3925 254.863 54.8928 252.629 54.8184C250.931 54.9003 249.323 54.5653 247.715 53.9598C246.407 53.4372 245.203 52.6816 244.159 51.729V64.6625C244.16 64.8539 244.124 65.0437 244.052 65.2209C243.981 65.3981 243.875 65.559 243.741 65.6944C243.607 65.8297 243.448 65.9368 243.273 66.0093C243.097 66.0818 242.91 66.1183 242.72 66.1166H234.581C234.392 66.1176 234.205 66.0809 234.03 66.0085C233.855 65.9361 233.696 65.8295 233.562 65.6948C233.319 65.4565 233.062 65.1116 233.062 64.7692ZM251.198 24.5865C250.437 24.5865 249.76 24.6684 248.992 24.8396C248.403 25.0109 247.723 25.1821 247.126 25.5245C246.535 25.7776 246.027 26.2119 245.597 26.6362C245.089 27.1524 244.578 27.6661 244.159 28.1797V44.1208C244.92 44.9794 245.855 45.6667 246.873 46.091C247.892 46.4335 248.911 46.6866 249.922 46.6866C250.941 46.6866 251.868 46.5154 252.718 46.091C253.648 45.6667 254.414 44.9794 254.924 44.1208C255.602 43.0115 256.112 41.8105 256.451 40.6095C256.871 38.8923 257.04 37.0957 256.962 35.2991C256.962 33.5819 256.881 31.9565 256.539 30.3287C256.35 29.179 255.947 28.0761 255.351 27.0779C254.909 26.3135 254.263 25.6908 253.486 25.2814C252.897 24.7578 252.048 24.5865 251.198 24.5865ZM70.0945 30.8448C70.0945 28.7852 69.7558 26.8174 69.0783 24.929C68.4511 23.1715 67.468 21.5656 66.1918 20.2142C64.9228 18.8419 63.3077 17.8121 61.6165 17.1346C59.6695 16.3804 57.5995 16.0033 55.5145 16.0229C52.5494 16.0229 49.5843 16.5366 46.6978 17.4771C44.2724 18.3387 42.0104 19.6126 40.0091 21.244C39.7893 21.4268 39.6427 21.6841 39.5967 21.9681C39.5506 22.2521 39.6082 22.5433 39.7588 22.7875L41.2855 25.4426C41.6242 25.9588 42.0464 26.4725 42.5545 26.8174C43.1436 27.1598 43.8235 27.4129 44.5034 27.4129C45.2619 27.4129 46.0301 27.3311 46.7076 26.9886C47.2967 26.7355 47.9766 26.3931 48.6565 26.0481C49.3364 25.6238 50.0949 25.2789 50.8631 25.0183C51.8818 24.6759 52.9814 24.594 54.0786 24.594C55.6888 24.594 56.9651 25.1076 57.893 26.0481C58.8257 27.0779 59.2528 28.6214 59.2528 30.8448V32.4702C55.0162 32.4702 51.4522 32.8945 48.6565 33.6712C45.8583 34.4405 43.6541 35.3884 41.9654 36.5895C40.5271 37.5275 39.3391 38.8997 38.4898 40.4457C37.8162 41.708 37.4661 43.1207 37.4711 44.555C37.4711 46.0985 37.7215 47.6345 38.2321 49.0093C38.7401 50.2897 39.4986 51.3195 40.4362 52.26C41.4549 53.2005 42.6453 53.8035 43.9953 54.2303C45.511 54.6718 47.0792 54.9022 48.6565 54.9152C49.8445 54.9152 50.9441 54.8333 52.1321 54.5728C53.1508 54.3991 54.0786 54.0566 55.0972 53.6323C56.0487 53.2047 56.9584 52.688 57.8144 52.0888C58.3225 51.7463 58.7422 51.4014 59.2528 50.9771V54.4909H65.5241C68.0695 54.4909 70.097 52.4312 70.097 49.8654V30.8448H70.0945ZM55.9441 46.6965C54.7664 47.2054 53.4988 47.4671 52.2181 47.4658C50.8607 47.4658 49.8421 47.2102 49.172 46.6965C48.4921 46.1804 48.1533 45.2424 48.1533 43.9495C48.1533 43.354 48.3227 42.6666 48.6614 42.1529C49.0812 41.4656 49.6801 40.9519 50.441 40.6988C51.5245 40.1991 52.661 39.8261 53.8282 39.5871C55.6053 39.2446 57.4708 39.1628 59.3387 39.1628V44.2994C58.3127 45.2325 57.2131 46.0911 55.9441 46.6965ZM217.812 54.0566L226.459 48.9993C226.747 48.819 226.984 48.5663 227.147 48.2658C227.31 47.9654 227.394 47.6273 227.389 47.2846V27.4129C227.389 26.6437 226.628 26.2119 225.951 26.5544L217.392 31.6116C217.103 31.7918 216.865 32.0448 216.701 32.3458C216.538 32.6468 216.454 32.9855 216.459 33.3288V53.2079C216.373 53.9772 217.222 54.3991 217.812 54.0566Z" fill="#1A2A36"/>
<path d="M226.449 5.57339L217.382 0.263019C217.132 0.0793891 216.712 -1.82895e-05 216.371 -1.82895e-05C216.014 -0.0180256 215.66 0.0699655 215.352 0.253093L206.624 5.22102C206.373 5.39472 206.116 5.64535 206.116 5.90839C206.116 6.25083 206.366 6.50395 206.624 6.67765L216.371 12.4198V24.1522C216.371 24.4054 216.452 24.6684 216.621 24.8396C216.871 25.0108 217.132 24.9215 217.301 24.8396L226.449 19.5292C227.038 19.1843 227.298 18.6707 227.298 17.9833V7.10943C227.291 6.80264 227.209 6.50235 227.061 6.23437C226.913 5.96639 226.703 5.73871 226.449 5.57091V5.57339Z" fill="url(#paint0_linear_1244_3912)"/>
<path d="M227.073 6.25085L216.371 12.4198V24.1597C216.371 24.4153 216.452 24.6759 216.621 24.8471C216.871 25.0208 217.132 24.929 217.301 24.8471L226.449 19.5367C227.038 19.1943 227.298 18.6781 227.298 17.9907V7.10945C227.295 6.80866 227.218 6.51347 227.073 6.25085Z" fill="url(#paint1_linear_1244_3912)"/>
</g>
<defs>
<linearGradient id="paint0_linear_1244_3912" x1="1343.97" y1="959.575" x2="1878.36" y2="-266.192" gradientUnits="userSpaceOnUse">
<stop stop-color="#8DD0D6"/>
<stop offset="1" stop-color="#57C4C6"/>
</linearGradient>
<linearGradient id="paint1_linear_1244_3912" x1="101.707" y1="941.037" x2="1259.09" y2="941.037" gradientUnits="userSpaceOnUse">
<stop stop-color="#8ED2D8"/>
<stop offset="1" stop-color="#57C4C7"/>
</linearGradient>
<clipPath id="clip0_1244_3912">
<rect width="270" height="67" fill="white"/>
</clipPath>
</defs>
</svg>
