<svg width="16" height="16" viewBox="0 0 16 16" fill="none" xmlns="http://www.w3.org/2000/svg">
<path d="M5 14.5C4.5875 14.5 4.2345 14.3587 3.941 14.0761C3.6475 13.7934 3.5005 13.4533 3.5 13.0556V11.6111H2C1.5875 11.6111 1.2345 11.4698 0.941 11.1872C0.6475 10.9045 0.5005 10.5644 0.5 10.1667V7.27778C0.5 6.66389 0.71875 6.14943 1.15625 5.73439C1.59375 5.31935 2.125 5.11159 2.75 5.11111H13.25C13.8875 5.11111 14.422 5.31887 14.8535 5.73439C15.285 6.14991 15.5005 6.66437 15.5 7.27778V10.1667C15.5 10.5639 15.3532 10.9041 15.0597 11.1872C14.7662 11.4703 14.413 11.6116 14 11.6111H12.5V13.0556C12.5 13.4528 12.3532 13.7929 12.0597 14.0761C11.7662 14.3592 11.413 14.5005 11 14.5H5ZM12.5 4.38889H3.5V2.94444C3.5 2.54722 3.647 2.2073 3.941 1.92467C4.235 1.64204 4.588 1.50048 5 1.5H11C11.4125 1.5 11.7657 1.64156 12.0597 1.92467C12.3537 2.20778 12.5005 2.5477 12.5 2.94444V4.38889ZM12.5 8.36111C12.7125 8.36111 12.8907 8.29178 13.0347 8.15311C13.1787 8.01444 13.2505 7.84304 13.25 7.63889C13.2495 7.43474 13.1775 7.26333 13.034 7.12467C12.8905 6.986 12.7125 6.91667 12.5 6.91667C12.2875 6.91667 12.1095 6.986 11.966 7.12467C11.8225 7.26333 11.7505 7.43474 11.75 7.63889C11.7495 7.84304 11.8215 8.01468 11.966 8.15383C12.1105 8.29298 12.2885 8.36207 12.5 8.36111ZM5 13.0556H11V10.1667H5V13.0556Z" fill="#481AA3"/>
</svg>
