<svg width="20" height="20" viewBox="0 0 20 20" fill="none" xmlns="http://www.w3.org/2000/svg">
<path d="M2.5 7.50023V12.5002H5.83333L10 16.6669V3.33356L5.83333 7.50023H2.5ZM13.75 10.0002C13.7498 9.302 13.5547 8.61768 13.1866 8.02434C12.8186 7.43101 12.2921 6.95222 11.6667 6.64189V13.3502C12.9 12.7419 13.75 11.4752 13.75 10.0002ZM11.6667 2.69189V4.40856C14.075 5.12523 15.8333 7.35856 15.8333 10.0002C15.8333 12.6419 14.075 14.8752 11.6667 15.5919V17.3086C15.0083 16.5502 17.5 13.5669 17.5 10.0002C17.5 6.43356 15.0083 3.45023 11.6667 2.69189Z" fill="#959BA1"/>
</svg>
