<svg width="24" height="25" viewBox="0 0 24 25" fill="none" xmlns="http://www.w3.org/2000/svg">
<path d="M3 9.50047V15.5005H7L12 20.5005V4.50047L7 9.50047H3ZM16.5 12.5005C16.4998 11.6626 16.2657 10.8414 15.824 10.1294C15.3823 9.41741 14.7506 8.84286 14 8.47047V16.5205C15.48 15.7905 16.5 14.2705 16.5 12.5005ZM14 3.73047V5.79047C16.89 6.65047 19 9.33047 19 12.5005C19 15.6705 16.89 18.3505 14 19.2105V21.2705C18.01 20.3605 21 16.7805 21 12.5005C21 8.22047 18.01 4.64047 14 3.73047Z" fill="#481AA3"/>
</svg>
