<svg width="24" height="25" viewBox="0 0 24 25" fill="none" xmlns="http://www.w3.org/2000/svg">
<path d="M12 4.5L9.91 6.59L12 8.68M4.27 3.5L3 4.77L7.73 9.5H3V15.5H7L12 20.5V13.77L16.25 18.03C15.58 18.54 14.83 18.96 14 19.2V21.27C15.38 20.95 16.63 20.32 17.68 19.46L19.73 21.5L21 20.23L12 11.23M19 12.5C19 13.44 18.8 14.32 18.46 15.14L19.97 16.65C20.6455 15.3709 20.999 13.9465 21 12.5C21 8.22 18 4.64 14 3.73V5.79C16.89 6.65 19 9.33 19 12.5ZM16.5 12.5C16.5 10.73 15.5 9.21 14 8.47V10.68L16.45 13.13C16.5 12.93 16.5 12.71 16.5 12.5Z" fill="#959BA1"/>
</svg>
