<svg width="16" height="16" viewBox="0 0 16 16" fill="none" xmlns="http://www.w3.org/2000/svg">
<path d="M0.666626 14.0007L7.99996 1.33398L15.3333 14.0007H0.666626ZM7.99996 12.0007C8.18885 12.0007 8.34729 11.9367 8.47529 11.8087C8.60329 11.6807 8.66707 11.5224 8.66663 11.334C8.66618 11.1455 8.60218 10.9873 8.47463 10.8593C8.34707 10.7313 8.18885 10.6673 7.99996 10.6673C7.81107 10.6673 7.65285 10.7313 7.52529 10.8593C7.39774 10.9873 7.33374 11.1455 7.33329 11.334C7.33285 11.5224 7.39685 11.6809 7.52529 11.8093C7.65374 11.9378 7.81196 12.0015 7.99996 12.0007ZM7.33329 10.0007H8.66663V6.66732H7.33329V10.0007Z" fill="#F2994A"/>
</svg>
